<svg xmlns="http://www.w3.org/2000/svg" width="20" height="20" viewBox="0 0 20 20">
  <g id="dark-inactive" transform="translate(-0.002 0)">
    <g id="Group_5958" data-name="Group 5958" transform="translate(0.002 0)">
      <path id="Path_5384" data-name="Path 5384" d="M19.94,12.95a.832.832,0,0,0-.77-.516h-.005l-.015,0a.825.825,0,0,0-.192.029c-.024.006-.046.013-.069.02s-.024.006-.036.01a8.644,8.644,0,0,1-3.3.648A8.7,8.7,0,0,1,7.507,1.15c.006-.015.008-.03.013-.045s.012-.037.017-.056A.826.826,0,0,0,7.568.842s0-.006,0-.009v0A.791.791,0,0,0,7.554.682L7.548.651A.819.819,0,0,0,7.5.511C7.5.493,7.486.478,7.478.461a.822.822,0,0,0-1.1-.378l-.007,0A10.188,10.188,0,0,0,3.028,2.322,10.361,10.361,0,0,0,17.681,16.974a10.2,10.2,0,0,0,2.232-3.332.159.159,0,0,0,.005-.015.841.841,0,0,0,.057-.155s0-.008,0-.012A.827.827,0,0,0,19.94,12.95ZM16.5,15.8A8.694,8.694,0,1,1,5.37,2.533,10.364,10.364,0,0,0,15.55,14.812a10.432,10.432,0,0,0,1.92-.178A8.734,8.734,0,0,1,16.5,15.8Z" transform="translate(-0.002 0)" fill="#fff"/>
    </g>
  </g>
</svg>
