<svg xmlns="http://www.w3.org/2000/svg" width="22.735" height="24.024" viewBox="0 0 22.735 24.024">
  <g id="dark-inactive" transform="translate(-635.835 -67.54)">
    <path id="Path_30" data-name="Path 30" d="M649.114,67.54l.786.1c.129.015.259.028.441.048a9.764,9.764,0,0,0-4.879,6.66,8.97,8.97,0,0,0,.981,6.314,9.575,9.575,0,0,0,12.126,4.134c-.151.292-.269.547-.409.79a11.736,11.736,0,0,1-11.266,5.938,11.779,11.779,0,0,1-7.843-3.784,11.382,11.382,0,0,1-3.065-6.273,11.731,11.731,0,0,1,3.664-10.69,11.506,11.506,0,0,1,6.731-3.141c.223-.027.446-.06.669-.091Z" fill="#fff"/>
  </g>
</svg>
