<?xml version="1.0" encoding="UTF-8" standalone="no"?> <!-- Created with Vectornator for iOS (http://vectornator.io/) --><!DOCTYPE svg PUBLIC "-//W3C//DTD SVG 1.1//EN" "http://www.w3.org/Graphics/SVG/1.1/DTD/svg11.dtd">
<svg style="fill-rule:evenodd;clip-rule:evenodd;stroke-linecap:round;stroke-linejoin:round;" xmlns:vectornator="http://vectornator.io" xmlns:xlink="http://www.w3.org/1999/xlink" xmlns="http://www.w3.org/2000/svg" xml:space="preserve" version="1.1" viewBox="0 0 3500 2000">
<metadata>
<vectornator:setting key="DimensionsVisible" value="1"/>
<vectornator:setting key="DynamicGuides" value="1"/>
<vectornator:setting key="SnapToPoints" value="1"/>
<vectornator:setting key="GuidesVisible" value="1"/>
<vectornator:setting key="RulersVisible" value="1"/>
<vectornator:setting key="CMYKEnabledKey" value="0"/>
<vectornator:setting key="SnapToEdges" value="0"/>
<vectornator:setting key="DisplayWhiteBackground" value="1"/>
<vectornator:setting key="SnapToGuides" value="1"/>
<vectornator:setting key="GridSpacing" value="36"/>
<vectornator:setting key="SnapToGrid" value="0"/>
<vectornator:setting key="Units" value="Pixels"/>
<vectornator:setting key="New" value="1"/>
</metadata>
<defs>
<linearGradient y1="1375.21" id="LinearGradient" x1="4266.25" y2="1905" x2="3920.04" gradientUnits="userSpaceOnUse" gradientTransform="matrix(1.31313 0 0 1.31313 -4657.49 -1238.85)">
<stop stop-color="#00dffe" offset="0"/>
<stop stop-color="#00f5ff" offset="0.525336"/>
<stop stop-color="#23fccf" offset="1"/>
</linearGradient>
<radialGradient cx="516.995" r="492.399" id="RadialGradient" gradientUnits="userSpaceOnUse" gradientTransform="matrix(1.31313 0 0 1.31313 326.39 336.136)" cy="280.831">
<stop stop-opacity="0.476377" stop-color="#060606" offset="0"/>
<stop stop-opacity="0.253808" stop-color="#030509" offset="0.110106"/>
<stop stop-opacity="0" stop-color="#00040c" offset="0.45098"/>
<stop stop-opacity="0" stop-color="#144a4c" offset="0.659125"/>
<stop stop-opacity="0" stop-color="#2afdc5" offset="1"/>
</radialGradient>
</defs>
<g id="Layer 1 copy" vectornator:layerName="Layer 1 copy">
<g opacity="1">
<path d="M971.327+465.925C946.147+465.925+925.736+486.335+925.736+511.515L925.736+997.086L925.736+720.631C925.736+720.631+893.022+698.874+849.508+684.351C817.011+673.505+776.139+668.804+751.09+668.803C570.173+668.803+422.807+816.17+422.807+997.086C422.807+1178+570.173+1325.37+751.09+1325.37C932.007+1325.37+1072.81+1178+1072.81+997.086L1072.81+511.515C1072.81+486.335+1052.4+465.925+1027.22+465.925L971.327+465.925ZM752.362+815.259C853.048+815.259+925.08+896.401+925.08+997.086C925.08+1044.08+909.381+1086.83+882.403+1119.04C851.584+1155.85+806.051+1178.91+752.362+1178.91C651.676+1178.91+570.535+1097.77+570.534+997.086C570.534+896.401+651.676+815.258+752.362+815.259Z" opacity="1" fill="url(#LinearGradient)"/>
<path d="M751.09+668.803C570.173+668.803+422.807+816.17+422.807+997.086C422.807+1178+570.173+1325.37+751.09+1325.37C932.007+1325.37+1072.81+1178+1072.81+997.086L925.736+997.086L925.736+720.631C920.83+717.415+918.485+715.647+910.739+711.383C863.427+685.339+809.682+668.803+751.09+668.803ZM752.362+815.259C853.048+815.259+925.08+896.401+925.08+997.086C925.08+1044.08+909.381+1086.83+882.403+1119.04C851.584+1155.85+806.051+1178.91+752.362+1178.91C651.676+1178.91+570.535+1097.77+570.534+997.086C570.534+896.401+651.677+815.258+752.362+815.259Z" opacity="1" fill="url(#RadialGradient)"/>
</g>
<g opacity="1">
<path d="M1358.11+605.911L1634.88+605.911C1701.02+605.911+1759.48+618.531+1810.25+643.77C1861.02+669.01+1900.47+704.549+1928.61+750.386C1956.75+796.224+1970.83+849.604+1970.83+910.527C1970.83+971.451+1956.75+1024.83+1928.61+1070.67C1900.47+1116.51+1861.02+1152.04+1810.25+1177.28C1759.48+1202.52+1701.02+1215.14+1634.88+1215.14L1358.11+1215.14L1358.11+605.911ZM1627.91+1099.39C1688.84+1099.39+1737.43+1082.42+1773.69+1048.48C1809.96+1014.53+1828.09+968.55+1828.09+910.527C1828.09+852.505+1809.96+806.523+1773.69+772.58C1737.43+738.637+1688.84+721.665+1627.91+721.665L1499.1+721.665L1499.1+1099.39L1627.91+1099.39Z" opacity="1" fill="#ffffff"/>
<path d="M2516.6+746.905L2516.6+1215.14L2386.92+1215.14L2386.92+1161.18C2353.27+1201.8+2304.53+1222.11+2240.7+1222.11C2196.61+1222.11+2156.72+1212.24+2121.03+1192.52C2085.35+1172.79+2057.35+1144.65+2037.05+1108.09C2016.74+1071.54+2006.58+1029.18+2006.58+981.024C2006.58+932.866+2016.74+890.51+2037.05+853.956C2057.35+817.402+2085.35+789.261+2121.03+769.533C2156.72+749.806+2196.61+739.942+2240.7+739.942C2300.47+739.942+2347.18+758.799+2380.83+796.514L2380.83+746.905L2516.6+746.905ZM2264.2+1110.7C2298.44+1110.7+2326.87+1098.95+2349.5+1075.46C2372.12+1051.96+2383.44+1020.48+2383.44+981.024C2383.44+941.569+2372.12+910.092+2349.5+886.593C2326.87+863.094+2298.44+851.345+2264.2+851.345C2229.39+851.345+2200.67+863.094+2178.04+886.593C2155.41+910.092+2144.1+941.569+2144.1+981.024C2144.1+1020.48+2155.41+1051.96+2178.04+1075.46C2200.67+1098.95+2229.39+1110.7+2264.2+1110.7Z" opacity="1" fill="#ffffff"/>
<g opacity="1">
<path d="M2714.41+757.349L3016.97+757.352L3010.74+861.79L2717.89+861.789L2717.89+1215.14L2582.12+1215.14L2582.12+736.461C2582.12+683.08+2597.93+640.724+2629.55+609.392C2661.18+578.06+2705.71+562.394+2763.15+562.394C2783.46+562.394+2802.75+564.57+2821.03+568.922C2839.3+573.273+2854.54+579.511+2866.72+587.634L2831.04+685.981C2815.37+674.957+2797.09+669.445+2776.21+669.445C2735.01+669.445+2714.41+692.074+2714.41+737.331L2714.41+757.349Z" opacity="1" fill="#ffffff"/>
<path d="M2924.88+757.396L3060.66+757.396L3060.66+1215.15L2924.88+1215.15L2924.88+757.396Z" opacity="1" fill="#ffffff"/>
<path d="M2992.77+681.634C2967.82+681.634+2947.51+674.381+2931.85+659.875C2916.18+645.37+2908.35+627.383+2908.35+605.915C2908.35+584.446+2916.18+566.46+2931.85+551.954C2947.51+537.448+2967.82+530.196+2992.77+530.196C3017.72+530.196+3038.03+537.158+3053.69+551.084C3069.36+565.009+3077.19+582.416+3077.19+603.304C3077.19+625.932+3069.36+644.644+3053.69+659.44C3038.03+674.236+3017.72+681.634+2992.77+681.634Z" opacity="1" fill="#ffffff"/>
</g>
</g>
<g opacity="1">
<path d="M1467.65+1430.43L1493.7+1430.43C1508.63+1430.43+1518.71+1431.09+1523.92+1432.39C1531.39+1434.23+1537.49+1438.01+1542.24+1443.72C1546.98+1449.44+1549.35+1456.63+1549.35+1465.28C1549.35+1473.99+1547.04+1481.18+1542.41+1486.84C1537.79+1492.5+1531.42+1496.31+1523.3+1498.26C1517.37+1499.68+1506.29+1500.4+1490.05+1500.4L1480.72+1500.4L1480.72+1561.2L1467.65+1561.2L1467.65+1430.43ZM1480.72+1443.15L1480.72+1487.59L1502.85+1487.86C1511.8+1487.86+1518.35+1487.05+1522.5+1485.42C1526.65+1483.79+1529.91+1481.15+1532.28+1477.5C1534.65+1473.86+1535.84+1469.79+1535.84+1465.28C1535.84+1460.9+1534.65+1456.88+1532.28+1453.24C1529.91+1449.59+1526.78+1447+1522.9+1445.46C1519.02+1443.92+1512.66+1443.15+1503.83+1443.15L1480.72+1443.15Z" opacity="1" fill="#f2f2f4"/>
<path d="M1650.2+1430.43L1676.25+1430.43C1690.77+1430.43+1700.61+1431.03+1705.76+1432.21C1713.53+1433.99+1719.84+1437.8+1724.7+1443.64C1729.56+1449.47+1731.99+1456.66+1731.99+1465.19C1731.99+1472.3+1730.31+1478.56+1726.96+1483.95C1723.62+1489.34+1718.83+1493.42+1712.61+1496.17C1706.38+1498.93+1697.79+1500.34+1686.83+1500.4L1733.85+1561.2L1717.67+1561.2L1670.74+1500.4L1663.27+1500.4L1663.27+1561.2L1650.2+1561.2L1650.2+1430.43ZM1663.27+1443.24L1663.27+1487.68L1685.76+1487.86C1694.47+1487.86+1700.92+1487.03+1705.1+1485.37C1709.27+1483.71+1712.53+1481.06+1714.87+1477.42C1717.21+1473.77+1718.38+1469.7+1718.38+1465.19C1718.38+1460.81+1717.2+1456.82+1714.83+1453.24C1712.46+1449.65+1709.35+1447.09+1705.5+1445.55C1701.64+1444.01+1695.24+1443.24+1686.29+1443.24L1663.27+1443.24Z" opacity="1" fill="#f2f2f4"/>
<path d="M1896.31+1427.15C1916.11+1427.15+1932.67+1433.75+1946.01+1446.97C1959.34+1460.19+1966.01+1476.45+1966.01+1495.77C1966.01+1514.92+1959.35+1531.15+1946.05+1544.49C1932.74+1557.82+1916.52+1564.49+1897.38+1564.49C1878+1564.49+1861.64+1557.85+1848.31+1544.58C1834.97+1531.3+1828.31+1515.24+1828.31+1496.4C1828.31+1483.83+1831.34+1472.19+1837.42+1461.46C1843.49+1450.73+1851.78+1442.33+1862.27+1436.26C1872.75+1430.18+1884.1+1427.15+1896.31+1427.15ZM1896.93+1439.95C1887.27+1439.95+1878.12+1442.47+1869.47+1447.5C1860.81+1452.54+1854.06+1459.33+1849.2+1467.86C1844.34+1476.39+1841.91+1485.91+1841.91+1496.4C1841.91+1511.92+1847.29+1525.03+1858.04+1535.73C1868.8+1546.43+1881.76+1551.78+1896.93+1551.78C1907.07+1551.78+1916.45+1549.32+1925.07+1544.4C1933.69+1539.48+1940.42+1532.75+1945.25+1524.22C1950.08+1515.69+1952.49+1506.2+1952.49+1495.77C1952.49+1485.4+1950.08+1476.02+1945.25+1467.64C1940.42+1459.25+1933.62+1452.54+1924.85+1447.5C1916.08+1442.47+1906.77+1439.95+1896.93+1439.95Z" opacity="1" fill="#f2f2f4"/>
<path d="M2053.26+1443.15L2053.26+1430.43L2125+1430.43L2125+1443.15L2095.84+1443.15L2095.84+1561.2L2082.51+1561.2L2082.51+1443.15L2053.26+1443.15Z" opacity="1" fill="#f2f2f4"/>
<path d="M2280.08+1427.15C2299.87+1427.15+2316.44+1433.75+2329.77+1446.97C2343.11+1460.19+2349.77+1476.45+2349.77+1495.77C2349.77+1514.92+2343.12+1531.15+2329.82+1544.49C2316.51+1557.82+2300.29+1564.49+2281.15+1564.49C2261.77+1564.49+2245.41+1557.85+2232.08+1544.58C2218.74+1531.3+2212.07+1515.24+2212.07+1496.4C2212.07+1483.83+2215.11+1472.19+2221.19+1461.46C2227.26+1450.73+2235.54+1442.33+2246.03+1436.26C2256.52+1430.18+2267.87+1427.15+2280.08+1427.15ZM2280.7+1439.95C2271.04+1439.95+2261.89+1442.47+2253.23+1447.5C2244.58+1452.54+2237.82+1459.33+2232.97+1467.86C2228.11+1476.39+2225.68+1485.91+2225.68+1496.4C2225.68+1511.92+2231.05+1525.03+2241.81+1535.73C2252.57+1546.43+2265.53+1551.78+2280.7+1551.78C2290.84+1551.78+2300.21+1549.32+2308.84+1544.4C2317.46+1539.48+2324.19+1532.75+2329.02+1524.22C2333.85+1515.69+2336.26+1506.2+2336.26+1495.77C2336.26+1485.4+2333.85+1476.02+2329.02+1467.64C2324.19+1459.25+2317.39+1452.54+2308.62+1447.5C2299.84+1442.47+2290.54+1439.95+2280.7+1439.95Z" opacity="1" fill="#f2f2f4"/>
<path d="M2571.79+1454.7L2561.48+1462.61C2555.79+1455.21+2548.96+1449.59+2540.99+1445.77C2533.02+1441.95+2524.26+1440.04+2514.72+1440.04C2504.29+1440.04+2494.63+1442.54+2485.74+1447.55C2476.85+1452.55+2469.96+1459.28+2465.07+1467.73C2460.19+1476.17+2457.74+1485.67+2457.74+1496.22C2457.74+1512.16+2463.21+1525.46+2474.14+1536.13C2485.08+1546.8+2498.87+1552.13+2515.52+1552.13C2533.84+1552.13+2549.16+1544.96+2561.48+1530.62L2571.79+1538.44C2565.28+1546.74+2557.14+1553.16+2547.39+1557.69C2537.64+1562.22+2526.75+1564.49+2514.72+1564.49C2491.85+1564.49+2473.8+1556.87+2460.59+1541.64C2449.5+1528.78+2443.96+1513.26+2443.96+1495.06C2443.96+1475.92+2450.67+1459.81+2464.1+1446.75C2477.52+1433.68+2494.34+1427.15+2514.55+1427.15C2526.75+1427.15+2537.78+1429.56+2547.61+1434.39C2557.45+1439.22+2565.51+1445.99+2571.79+1454.7Z" opacity="1" fill="#f2f2f4"/>
<path d="M2734.34+1427.15C2754.14+1427.15+2770.7+1433.75+2784.04+1446.97C2797.37+1460.19+2804.04+1476.45+2804.04+1495.77C2804.04+1514.92+2797.38+1531.15+2784.08+1544.49C2770.77+1557.82+2754.55+1564.49+2735.41+1564.49C2716.03+1564.49+2699.67+1557.85+2686.34+1544.58C2673+1531.3+2666.34+1515.24+2666.34+1496.4C2666.34+1483.83+2669.37+1472.19+2675.45+1461.46C2681.52+1450.73+2689.81+1442.33+2700.3+1436.26C2710.78+1430.18+2722.13+1427.15+2734.34+1427.15ZM2734.96+1439.95C2725.3+1439.95+2716.15+1442.47+2707.5+1447.5C2698.84+1452.54+2692.09+1459.33+2687.23+1467.86C2682.37+1476.39+2679.94+1485.91+2679.94+1496.4C2679.94+1511.92+2685.32+1525.03+2696.07+1535.73C2706.83+1546.43+2719.79+1551.78+2734.96+1551.78C2745.1+1551.78+2754.48+1549.32+2763.1+1544.4C2771.72+1539.48+2778.45+1532.75+2783.28+1524.22C2788.11+1515.69+2790.52+1506.2+2790.52+1495.77C2790.52+1485.4+2788.11+1476.02+2783.28+1467.64C2778.45+1459.25+2771.65+1452.54+2762.88+1447.5C2754.11+1442.47+2744.8+1439.95+2734.96+1439.95Z" opacity="1" fill="#f2f2f4"/>
<path d="M2904.27+1430.43L2917.43+1430.43L2917.43+1548.58L2967.65+1548.58L2967.65+1561.2L2904.27+1561.2L2904.27+1430.43Z" opacity="1" fill="#f2f2f4"/>
</g>
</g>
</svg>
