<svg id="dashboard-nav-logo" xmlns="http://www.w3.org/2000/svg" xmlns:xlink="http://www.w3.org/1999/xlink" width="137.931" height="57.085" viewBox="0 0 137.931 57.085">
  <defs>
    <linearGradient id="linear-gradient" x1="5.913" y1="1.058" x2="5.38" y2="1.674" gradientUnits="objectBoundingBox">
      <stop offset="0" stop-color="#00dffe"/>
      <stop offset="0.525" stop-color="#00f5ff"/>
      <stop offset="1" stop-color="#23fccf"/>
    </linearGradient>
    <radialGradient id="radial-gradient" cx="0.896" cy="0.055" r="0.985" gradientTransform="translate(-0.001) scale(1.01 1)" gradientUnits="objectBoundingBox">
      <stop offset="0" stop-color="#060606" stop-opacity="0.475"/>
      <stop offset="0.11" stop-color="#030509" stop-opacity="0.255"/>
      <stop offset="0.451" stop-color="#00040c" stop-opacity="0"/>
      <stop offset="0.659" stop-color="#144a4c" stop-opacity="0"/>
      <stop offset="1" stop-color="#2afdc5" stop-opacity="0"/>
    </radialGradient>
  </defs>
  <g id="Group_5392" data-name="Group 5392">
    <path id="Path_4983" data-name="Path 4983" d="M451.31,465.925a2.369,2.369,0,0,0-2.369,2.369V479.16a18.559,18.559,0,0,0-3.961-1.885,18.02,18.02,0,0,0-5.114-.808,17.059,17.059,0,0,0,0,34.118,16.8,16.8,0,0,0,16.718-17.059V468.294a2.369,2.369,0,0,0-2.369-2.369Zm-11.378,18.153c5.232,0,8.975,4.217,8.975,9.448a9.817,9.817,0,0,1-2.218,6.337,8.669,8.669,0,0,1-6.757,3.111,9.448,9.448,0,1,1,0-18.9Z" transform="translate(-422.807 -465.925)" fill-rule="evenodd" fill="url(#linear-gradient)"/>
    <path id="Path_4984" data-name="Path 4984" d="M439.866,668.8a17.059,17.059,0,1,0,0,34.118,16.8,16.8,0,0,0,16.718-17.059h-7.642V671.5a8.842,8.842,0,0,0-.779-.481A17.114,17.114,0,0,0,439.866,668.8Zm.066,7.61c5.232,0,8.975,4.216,8.975,9.448a9.817,9.817,0,0,1-2.218,6.337,8.669,8.669,0,0,1-6.757,3.111,9.448,9.448,0,1,1,0-18.9Z" transform="translate(-422.807 -658.261)" fill-rule="evenodd" fill="url(#radial-gradient)"/>
  </g>
  <g id="Group_5394" data-name="Group 5394" transform="translate(48.602 3.34)">
    <path id="Path_4985" data-name="Path 4985" d="M1358.11,605.911h14.382a20.212,20.212,0,0,1,9.113,1.967,14.727,14.727,0,0,1,6.15,5.54,16.879,16.879,0,0,1,0,16.643,14.725,14.725,0,0,1-6.15,5.54,20.21,20.21,0,0,1-9.113,1.968H1358.11Zm14.02,25.643a10.639,10.639,0,0,0,7.575-2.646,10.5,10.5,0,0,0,0-14.337,10.639,10.639,0,0,0-7.575-2.646h-6.694v19.628Z" transform="translate(-1358.11 -601.977)" fill="#fff" fill-rule="evenodd"/>
    <path id="Path_4986" data-name="Path 4986" d="M2033.083,740.3v24.331h-6.739v-2.8q-2.622,3.166-7.6,3.166a12.641,12.641,0,0,1-6.218-1.538,11.009,11.009,0,0,1-4.364-4.387,14.558,14.558,0,0,1,0-13.206,11.009,11.009,0,0,1,4.364-4.387,12.636,12.636,0,0,1,6.218-1.538,9.256,9.256,0,0,1,7.282,2.94V740.3Zm-13.116,18.9a5.9,5.9,0,0,0,4.433-1.831,7.709,7.709,0,0,0,0-9.814,6.333,6.333,0,0,0-8.91,0,7.708,7.708,0,0,0,0,9.814A5.95,5.95,0,0,0,2019.967,759.208Z" transform="translate(-1972.883 -729.043)" fill="#fff" fill-rule="evenodd"/>
    <g id="Group_5393" data-name="Group 5393" transform="translate(63.604 0)">
      <path id="Path_4987" data-name="Path 4987" d="M2588.994,572.524h15.722l-.323,5.427h-15.218v18.361h-7.055V571.439a8.879,8.879,0,0,1,2.464-6.6,9.439,9.439,0,0,1,6.942-2.442,12.938,12.938,0,0,1,3.008.339,7.307,7.307,0,0,1,2.374.972l-1.854,5.111a4.826,4.826,0,0,0-2.849-.859q-3.212,0-3.212,3.527Z" transform="translate(-2582.12 -560.721)" fill="#fff" fill-rule="evenodd"/>
      <path id="Path_4988" data-name="Path 4988" d="M2924.88,757.4h7.056v23.786h-7.056Z" transform="translate(-2907.069 -745.59)" fill="#fff" fill-rule="evenodd"/>
      <path id="Path_4989" data-name="Path 4989" d="M2912.737,538.065a4.472,4.472,0,0,1-3.166-1.131,3.83,3.83,0,0,1,0-5.608,4.472,4.472,0,0,1,3.166-1.131,4.585,4.585,0,0,1,3.166,1.085,3.479,3.479,0,0,1,1.221,2.714,3.839,3.839,0,0,1-1.221,2.917A4.422,4.422,0,0,1,2912.737,538.065Z" transform="translate(-2891.398 -530.196)" fill="#fff" fill-rule="evenodd"/>
    </g>
  </g>
  <g id="Group_5395" data-name="Group 5395" transform="translate(54.294 49.949)">
    <path id="Path_4990" data-name="Path 4990" d="M1467.65,1430.43H1469a7.787,7.787,0,0,1,1.571.1,1.748,1.748,0,0,1,.952.589,1.9,1.9,0,0,1,.009,2.241,1.77,1.77,0,0,1-.993.594,8.79,8.79,0,0,1-1.728.111h-.485v3.159h-.679Zm.679.661v2.309l1.15.014a3,3,0,0,0,1.021-.127,1.049,1.049,0,0,0,.509-.412,1.141,1.141,0,0,0,.185-.635,1.126,1.126,0,0,0-.185-.626,1.02,1.02,0,0,0-.488-.4,2.923,2.923,0,0,0-.991-.12Z" transform="translate(-1467.65 -1430.259)" fill="#f2f2f4" fill-rule="evenodd"/>
    <path id="Path_4991" data-name="Path 4991" d="M1650.2,1430.43h1.354a8.217,8.217,0,0,1,1.533.093,1.751,1.751,0,0,1,.984.594,1.689,1.689,0,0,1,.379,1.12,1.81,1.81,0,0,1-.261.975,1.628,1.628,0,0,1-.746.635,3.429,3.429,0,0,1-1.339.22l2.443,3.159h-.841l-2.438-3.159h-.388v3.159h-.679Zm.679.666v2.309l1.169.009a2.9,2.9,0,0,0,1-.129,1.045,1.045,0,0,0,.508-.413,1.154,1.154,0,0,0,.182-.635,1.1,1.1,0,0,0-.185-.621,1.028,1.028,0,0,0-.485-.4,2.958,2.958,0,0,0-1-.12Z" transform="translate(-1640.714 -1430.259)" fill="#f2f2f4" fill-rule="evenodd"/>
    <path id="Path_4992" data-name="Path 4992" d="M1831.844,1427.15a3.521,3.521,0,0,1,2.582,1.03,3.572,3.572,0,0,1-2.527,6.107,3.476,3.476,0,0,1-2.55-1.034,3.4,3.4,0,0,1-1.039-2.5,3.622,3.622,0,0,1,.473-1.816,3.5,3.5,0,0,1,3.061-1.783Zm.032.665a2.8,2.8,0,0,0-1.427.393,2.826,2.826,0,0,0-1.053,1.058,2.945,2.945,0,0,0-.379,1.483,2.854,2.854,0,0,0,2.859,2.878,2.9,2.9,0,0,0,1.462-.384,2.748,2.748,0,0,0,1.049-1.049,2.951,2.951,0,0,0,.376-1.478,2.877,2.877,0,0,0-.376-1.462,2.811,2.811,0,0,0-1.06-1.046A2.87,2.87,0,0,0,1831.875,1427.815Z" transform="translate(-1809.569 -1427.15)" fill="#f2f2f4" fill-rule="evenodd"/>
    <path id="Path_4993" data-name="Path 4993" d="M2053.26,1431.091v-.661h3.728v.661h-1.515v6.134h-.692v-6.134Z" transform="translate(-2022.829 -1430.259)" fill="#f2f2f4" fill-rule="evenodd"/>
    <path id="Path_4994" data-name="Path 4994" d="M2215.6,1427.15a3.522,3.522,0,0,1,2.582,1.03,3.572,3.572,0,0,1-2.526,6.107,3.475,3.475,0,0,1-2.55-1.034,3.4,3.4,0,0,1-1.04-2.5,3.62,3.62,0,0,1,.474-1.816,3.5,3.5,0,0,1,3.061-1.783Zm.032.665a2.894,2.894,0,0,0-2.481,1.45,2.949,2.949,0,0,0-.378,1.483,2.854,2.854,0,0,0,2.859,2.878,2.9,2.9,0,0,0,1.462-.384,2.745,2.745,0,0,0,1.048-1.049,2.949,2.949,0,0,0,.376-1.478,2.875,2.875,0,0,0-.376-1.462,2.81,2.81,0,0,0-1.06-1.046A2.873,2.873,0,0,0,2215.636,1427.815Z" transform="translate(-2173.387 -1427.15)" fill="#f2f2f4" fill-rule="evenodd"/>
    <path id="Path_4995" data-name="Path 4995" d="M2450.6,1428.582l-.537.411a2.926,2.926,0,0,0-1.064-.875,3.115,3.115,0,0,0-1.365-.3,3.013,3.013,0,0,0-1.505.39,2.789,2.789,0,0,0-1.074,1.049,2.906,2.906,0,0,0-.381,1.48,2.781,2.781,0,0,0,.853,2.074,2.954,2.954,0,0,0,2.15.832,3.022,3.022,0,0,0,2.388-1.118l.537.406a3.422,3.422,0,0,1-1.268,1,3.984,3.984,0,0,1-1.7.353,3.531,3.531,0,0,1-2.812-1.187,3.578,3.578,0,0,1-.864-2.421,3.365,3.365,0,0,1,1.046-2.51,3.605,3.605,0,0,1,2.622-1.019,3.845,3.845,0,0,1,1.718.376A3.338,3.338,0,0,1,2450.6,1428.582Z" transform="translate(-2393.227 -1427.15)" fill="#f2f2f4" fill-rule="evenodd"/>
    <path id="Path_4996" data-name="Path 4996" d="M2669.873,1427.15a3.524,3.524,0,0,1,2.583,1.03,3.572,3.572,0,0,1-2.527,6.107,3.476,3.476,0,0,1-2.55-1.034,3.4,3.4,0,0,1-1.039-2.5,3.62,3.62,0,0,1,.473-1.816,3.5,3.5,0,0,1,3.06-1.783Zm.032.665a2.9,2.9,0,0,0-2.48,1.45,2.94,2.94,0,0,0-.379,1.483,2.855,2.855,0,0,0,2.859,2.878,2.9,2.9,0,0,0,1.462-.384,2.745,2.745,0,0,0,1.048-1.049,2.943,2.943,0,0,0,.376-1.478,2.87,2.87,0,0,0-.376-1.462,2.807,2.807,0,0,0-1.06-1.046A2.873,2.873,0,0,0,2669.905,1427.815Z" transform="translate(-2604.052 -1427.15)" fill="#f2f2f4" fill-rule="evenodd"/>
    <path id="Path_4997" data-name="Path 4997" d="M2904.27,1430.43h.685v6.14h2.608v.656h-3.293Z" transform="translate(-2829.617 -1430.259)" fill="#f2f2f4" fill-rule="evenodd"/>
  </g>
</svg>
