<svg xmlns="http://www.w3.org/2000/svg" xmlns:xlink="http://www.w3.org/1999/xlink" width="95" height="76.364" viewBox="0 0 95 76.364">
  <defs>
    <linearGradient id="linear-gradient" x1="0.202" y1="0.196" x2="1.024" y2="0.978" gradientUnits="objectBoundingBox">
      <stop offset="0" stop-color="#2ba59a"/>
      <stop offset="1" stop-color="#42e0d1" stop-opacity="0.898"/>
    </linearGradient>
  </defs>
  <g id="Group_5959" data-name="Group 5959" transform="translate(-3857.79 -3741)">
    <path id="Path_5395" data-name="Path 5395" d="M277.86,162.5H262.229l-4.652,21.748h5.881l-1.761,14.7h4.56l16.906-25.169V170.16h-6.79Zm-9.3,23.544.848-7.079h-5.3l2.392-11.182h4.952l-1.487,7.66h5.717Z" transform="translate(3634.919 3617.544)" fill="url(#linear-gradient)"/>
    <path id="Path_5392" data-name="Path 5392" d="M82.168,55.689A47.5,47.5,0,0,0,8.316,115.012a4.64,4.64,0,0,0,6.608,1.075l7.219-5.427a4.641,4.641,0,0,0,1.061-6.293c-12.756-19.028.72-44.651,23.308-45.4,23.555-.787,38.564,25.576,25.281,45.394a4.642,4.642,0,0,0,1.06,6.3l7.218,5.426A4.646,4.646,0,0,0,86.684,115a47.49,47.49,0,0,0-4.516-59.316ZM12.361,111.05A41.57,41.57,0,0,1,5.654,90.882h7.183A34.515,34.515,0,0,0,18.1,106.734ZM44.714,53.5A34.847,34.847,0,0,0,12.846,85.316H5.662a41.905,41.905,0,0,1,39.052-39Zm5.566,0V46.317a41.914,41.914,0,0,1,39.052,39H82.15A34.789,34.789,0,0,0,50.281,53.5Zm32.354,57.551-5.742-4.317a34.482,34.482,0,0,0,5.266-15.852h7.182A41.569,41.569,0,0,1,82.634,111.051Z" transform="translate(3857.79 3700.346)" fill="url(#linear-gradient)"/>
  </g>
</svg>
