<svg xmlns="http://www.w3.org/2000/svg" xmlns:xlink="http://www.w3.org/1999/xlink" width="99" height="95" viewBox="0 0 99 95">
  <defs>
    <linearGradient id="linear-gradient" x1="0.202" y1="0.196" x2="1.024" y2="0.978" gradientUnits="objectBoundingBox">
      <stop offset="0" stop-color="#2ba59a"/>
      <stop offset="1" stop-color="#42e0d1" stop-opacity="0.898"/>
    </linearGradient>
  </defs>
  <g id="feature4" transform="translate(-691.001 -1940.999)">
    <g id="ICON" transform="translate(-963.046 634.841)">
      <g id="Group_5161" data-name="Group 5161">
        <g id="Group_5108" data-name="Group 5108">
          <g id="Group_5107" data-name="Group 5107">
            <g id="Group_5106" data-name="Group 5106">
              <g id="Group_5105" data-name="Group 5105">
                <path id="Path_4802" data-name="Path 4802" d="M1703.421,1401.158a43.892,43.892,0,0,1-21.752-5.733,1.835,1.835,0,0,1-.682-2.556,1.96,1.96,0,0,1,2.639-.661,40.163,40.163,0,0,0,39.991-.233,1.972,1.972,0,0,1,2.648.629,1.836,1.836,0,0,1-.65,2.566A43.873,43.873,0,0,1,1703.421,1401.158Z"/>
              </g>
            </g>
          </g>
        </g>
        <g id="Group_5112" data-name="Group 5112">
          <g id="Group_5111" data-name="Group 5111">
            <g id="Group_5110" data-name="Group 5110">
              <g id="Group_5109" data-name="Group 5109">
                <path id="Path_4803" data-name="Path 4803" d="M1744.356,1362.779c-.023,0-.044,0-.068,0a1.892,1.892,0,0,1-1.86-1.929q.02-.616.021-1.238a37.624,37.624,0,0,0-20.714-33.4,1.838,1.838,0,0,1-.8-2.526,1.956,1.956,0,0,1,2.606-.771,41.342,41.342,0,0,1,22.759,36.695c0,.459-.008.911-.025,1.365A1.9,1.9,0,0,1,1744.356,1362.779Z"/>
              </g>
            </g>
          </g>
        </g>
        <g id="Group_5116" data-name="Group 5116">
          <g id="Group_5115" data-name="Group 5115">
            <g id="Group_5114" data-name="Group 5114">
              <g id="Group_5113" data-name="Group 5113">
                <path id="Path_4804" data-name="Path 4804" d="M1662.472,1362.308a1.9,1.9,0,0,1-1.927-1.832l-.008-.866a41.371,41.371,0,0,1,22.44-36.53,1.964,1.964,0,0,1,2.615.749,1.84,1.84,0,0,1-.775,2.534,37.654,37.654,0,0,0-20.426,33.248l.008.794a1.9,1.9,0,0,1-1.891,1.9Z"/>
              </g>
            </g>
          </g>
        </g>
        <g id="Group_5120" data-name="Group 5120">
          <g id="Group_5119" data-name="Group 5119">
            <g id="Group_5118" data-name="Group 5118">
              <g id="Group_5117" data-name="Group 5117">
                <path id="Path_4805" data-name="Path 4805" d="M1668.261,1393.323a13.778,13.778,0,1,1,14.214-13.771A14.013,14.013,0,0,1,1668.261,1393.323Zm0-23.808a10.042,10.042,0,1,0,10.36,10.037A10.213,10.213,0,0,0,1668.261,1369.514Z"/>
              </g>
            </g>
          </g>
        </g>
        <g id="Group_5124" data-name="Group 5124">
          <g id="Group_5123" data-name="Group 5123">
            <g id="Group_5122" data-name="Group 5122">
              <g id="Group_5121" data-name="Group 5121">
                <path id="Path_4806" data-name="Path 4806" d="M1703.421,1333.7a13.778,13.778,0,1,1,14.214-13.771A14.013,14.013,0,0,1,1703.421,1333.7Zm0-23.808a10.042,10.042,0,1,0,10.36,10.037A10.214,10.214,0,0,0,1703.421,1309.893Z"/>
              </g>
            </g>
          </g>
        </g>
        <g id="Group_5128" data-name="Group 5128">
          <g id="Group_5127" data-name="Group 5127">
            <g id="Group_5126" data-name="Group 5126">
              <g id="Group_5125" data-name="Group 5125">
                <path id="Path_4807" data-name="Path 4807" d="M1738.832,1393.323a13.778,13.778,0,1,1,14.214-13.771A14.013,14.013,0,0,1,1738.832,1393.323Zm0-23.808a10.042,10.042,0,1,0,10.36,10.037A10.213,10.213,0,0,0,1738.832,1369.514Z"/>
              </g>
            </g>
          </g>
        </g>
        <g id="Group_5132" data-name="Group 5132">
          <g id="Group_5131" data-name="Group 5131">
            <g id="Group_5130" data-name="Group 5130">
              <g id="Group_5129" data-name="Group 5129">
                <path id="Path_4808" data-name="Path 4808" d="M1703.631,1380.145c-11.913,0-21.6-9.389-21.6-20.929s9.691-20.929,21.6-20.929,21.6,9.389,21.6,20.929S1715.544,1380.145,1703.631,1380.145Zm0-38.123c-9.787,0-17.749,7.712-17.749,17.194s7.962,17.194,17.749,17.194,17.749-7.712,17.749-17.194S1713.418,1342.022,1703.631,1342.022Z"/>
              </g>
            </g>
          </g>
        </g>
        <g id="Group_5136" data-name="Group 5136">
          <g id="Group_5135" data-name="Group 5135">
            <g id="Group_5134" data-name="Group 5134">
              <g id="Group_5133" data-name="Group 5133">
                <path id="Path_4809" data-name="Path 4809" d="M1703.631,1340.8a1.9,1.9,0,0,1-1.927-1.867v-7.094a1.928,1.928,0,0,1,3.855,0v7.094A1.9,1.9,0,0,1,1703.631,1340.8Z"/>
              </g>
            </g>
          </g>
        </g>
        <g id="Group_5140" data-name="Group 5140">
          <g id="Group_5139" data-name="Group 5139">
            <g id="Group_5138" data-name="Group 5138">
              <g id="Group_5137" data-name="Group 5137">
                <path id="Path_4810" data-name="Path 4810" d="M1727.472,1373.258a1.985,1.985,0,0,1-1.033-.291l-6.075-3.744a1.833,1.833,0,0,1-.592-2.579,1.97,1.97,0,0,1,2.662-.573l6.075,3.744a1.833,1.833,0,0,1,.592,2.579A1.945,1.945,0,0,1,1727.472,1373.258Z"/>
              </g>
            </g>
          </g>
        </g>
        <g id="Group_5144" data-name="Group 5144">
          <g id="Group_5143" data-name="Group 5143">
            <g id="Group_5142" data-name="Group 5142">
              <g id="Group_5141" data-name="Group 5141">
                <path id="Path_4811" data-name="Path 4811" d="M1679.612,1375.13a1.945,1.945,0,0,1-1.629-.865,1.835,1.835,0,0,1,.592-2.579l6.073-3.744a1.971,1.971,0,0,1,2.662.573,1.834,1.834,0,0,1-.59,2.579l-6.075,3.744A1.981,1.981,0,0,1,1679.612,1375.13Z"/>
              </g>
            </g>
          </g>
        </g>
        <g id="Group_5148" data-name="Group 5148">
          <g id="Group_5147" data-name="Group 5147">
            <g id="Group_5146" data-name="Group 5146">
              <g id="Group_5145" data-name="Group 5145">
                <path id="Path_4812" data-name="Path 4812" d="M1703.631,1367.875a8.664,8.664,0,1,1,8.939-8.659A8.811,8.811,0,0,1,1703.631,1367.875Zm0-13.585a4.928,4.928,0,1,0,5.084,4.926A5.013,5.013,0,0,0,1703.631,1354.29Z"/>
              </g>
            </g>
          </g>
        </g>
        <g id="Group_5152" data-name="Group 5152">
          <g id="Group_5151" data-name="Group 5151">
            <g id="Group_5150" data-name="Group 5150">
              <g id="Group_5149" data-name="Group 5149">
                <ellipse id="Ellipse_7" data-name="Ellipse 7" cx="3.252" cy="3.151" rx="3.252" ry="3.151" transform="translate(1665.007 1376.4)"/>
              </g>
            </g>
          </g>
        </g>
        <g id="Group_5156" data-name="Group 5156">
          <g id="Group_5155" data-name="Group 5155">
            <g id="Group_5154" data-name="Group 5154">
              <g id="Group_5153" data-name="Group 5153">
                <ellipse id="Ellipse_8" data-name="Ellipse 8" cx="3.252" cy="3.151" rx="3.252" ry="3.151" transform="translate(1735.579 1376.4)"/>
              </g>
            </g>
          </g>
        </g>
        <g id="Group_5160" data-name="Group 5160">
          <g id="Group_5159" data-name="Group 5159">
            <g id="Group_5158" data-name="Group 5158">
              <g id="Group_5157" data-name="Group 5157">
                <ellipse id="Ellipse_9" data-name="Ellipse 9" cx="3.252" cy="3.151" rx="3.252" ry="3.151" transform="translate(1700.167 1316.78)"/>
              </g>
            </g>
          </g>
        </g>
      </g>
    </g>
    <path id="Color_Overlay" data-name="Color Overlay" d="M718.622,2030.267a1.835,1.835,0,0,1-.682-2.557,1.961,1.961,0,0,1,2.639-.661,40.159,40.159,0,0,0,39.991-.234,1.973,1.973,0,0,1,2.649.63,1.836,1.836,0,0,1-.65,2.565,44.13,44.13,0,0,1-43.946.256Zm42.95-15.874a13.363,13.363,0,0,1,1.755-6.625l-4.378-2.7a21.98,21.98,0,0,1-35.874,1.235l-4.7,2.894a13.326,13.326,0,0,1,1.05,5.195,14.222,14.222,0,1,1-14.215-13.772,14.363,14.363,0,0,1,11.231,5.341l4.653-2.868a20.263,20.263,0,0,1-2.119-9.036c0-10.911,8.662-19.9,19.677-20.846v-4.769a14.214,14.214,0,1,1,3.856-.056v4.825c11.014.947,19.676,9.935,19.676,20.846a20.248,20.248,0,0,1-1.5,7.658l4.773,2.941a1.937,1.937,0,0,1,.164.112,14.4,14.4,0,0,1,10.159-4.148,13.778,13.778,0,1,1-14.215,13.772Zm3.855,0a10.365,10.365,0,1,0,10.36-10.037A10.213,10.213,0,0,0,765.427,2014.393Zm-70.571,0a10.365,10.365,0,1,0,10.36-10.037A10.213,10.213,0,0,0,694.856,2014.393Zm27.979-20.336c0,9.482,7.962,17.195,17.75,17.195s17.749-7.712,17.749-17.195-7.961-17.194-17.749-17.194S722.835,1984.575,722.835,1994.057Zm7.18-39.287a10.365,10.365,0,1,0,10.359-10.037A10.213,10.213,0,0,0,730.015,1954.77Zm42.519,59.621a3.254,3.254,0,1,1,3.252,3.151A3.2,3.2,0,0,1,772.534,2014.392Zm-70.573,0a3.254,3.254,0,1,1,3.253,3.151A3.2,3.2,0,0,1,701.961,2014.392Zm29.685-20.335a8.943,8.943,0,1,1,8.939,8.659A8.812,8.812,0,0,1,731.646,1994.057Zm3.855,0a5.087,5.087,0,1,0,5.084-4.926A5.012,5.012,0,0,0,735.5,1994.057Zm45.742,3.561a1.892,1.892,0,0,1-1.859-1.93q.02-.616.021-1.238a37.623,37.623,0,0,0-20.714-33.4,1.838,1.838,0,0,1-.8-2.526,1.955,1.955,0,0,1,2.605-.771,41.341,41.341,0,0,1,22.758,36.695c0,.459-.007.911-.024,1.365a1.9,1.9,0,0,1-1.924,1.8C781.287,1997.62,781.266,1997.62,781.242,1997.618Zm-81.816-.469a1.9,1.9,0,0,1-1.928-1.832l-.007-.867a41.369,41.369,0,0,1,22.44-36.53,1.962,1.962,0,0,1,2.615.749,1.839,1.839,0,0,1-.775,2.533,37.654,37.654,0,0,0-20.426,33.248l.007.794a1.9,1.9,0,0,1-1.891,1.9Zm37.7-42.377a3.254,3.254,0,1,1,3.252,3.151A3.2,3.2,0,0,1,737.122,1954.772Z" opacity="0.967" fill="url(#linear-gradient)"/>
  </g>
</svg>
