<svg id="feature3" xmlns="http://www.w3.org/2000/svg" xmlns:xlink="http://www.w3.org/1999/xlink" width="95" height="95" viewBox="0 0 95 95">
  <defs>
    <linearGradient id="linear-gradient" x1="0.202" y1="0.196" x2="1.024" y2="0.978" gradientUnits="objectBoundingBox">
      <stop offset="0" stop-color="#2ba59a"/>
      <stop offset="1" stop-color="#42e0d1" stop-opacity="0.898"/>
    </linearGradient>
  </defs>
  <g id="Group_5961" data-name="Group 5961">
    <g id="Group_5960" data-name="Group 5960">
      <path id="Path_5396" data-name="Path 5396" d="M47.5,0A47.5,47.5,0,1,0,95,47.5,47.555,47.555,0,0,0,47.5,0Zm0,91.042A43.606,43.606,0,0,1,5.619,59.375H33.786c3.3,4.98,8.35,7.917,13.714,7.917s10.416-2.937,13.714-7.917H89.381A43.606,43.606,0,0,1,47.5,91.042ZM60.115,55.417a1.979,1.979,0,0,0-1.708.978c-2.545,4.344-6.622,6.939-10.907,6.939s-8.362-2.595-10.907-6.939a1.979,1.979,0,0,0-1.708-.978H4.693a43.542,43.542,0,1,1,85.615,0Z" fill="url(#linear-gradient)"/>
      <path id="Path_5397" data-name="Path 5397" d="M235.684,150.02,223.9,161.8a7.825,7.825,0,0,0-2.65-.489,8.009,8.009,0,1,0,5.965,2.771l11.267-11.267a1.979,1.979,0,0,0-2.8-2.8ZM221.25,173.19a3.958,3.958,0,1,1,3.958-3.958A3.958,3.958,0,0,1,221.25,173.19Z" transform="translate(-173.75 -121.732)" fill="url(#linear-gradient)"/>
      <path id="Path_5398" data-name="Path 5398" d="M247.312,43.875a1.979,1.979,0,0,0,1.979-1.979V33.979a1.979,1.979,0,0,0-3.958,0V41.9A1.979,1.979,0,0,0,247.312,43.875Z" transform="translate(-199.812 -26.063)" fill="url(#linear-gradient)"/>
      <path id="Path_5399" data-name="Path 5399" d="M425.895,245.333h-7.917a1.979,1.979,0,1,0,0,3.958h7.917a1.979,1.979,0,0,0,0-3.958Z" transform="translate(-338.812 -199.812)" fill="url(#linear-gradient)"/>
      <path id="Path_5400" data-name="Path 5400" d="M41.9,245.333H33.979a1.979,1.979,0,1,0,0,3.958H41.9a1.979,1.979,0,0,0,0-3.958Z" transform="translate(-26.063 -199.812)" fill="url(#linear-gradient)"/>
      <path id="Path_5401" data-name="Path 5401" d="M147.96,71.22,144.6,65.38a1.979,1.979,0,0,0-3.428,1.979l3.365,5.84a1.979,1.979,0,1,0,3.441-1.957Z" transform="translate(-114.764 -52.452)" fill="url(#linear-gradient)"/>
      <path id="Path_5402" data-name="Path 5402" d="M404.409,141.839a1.979,1.979,0,0,0-2.7-.742l-.023.013-5.84,3.365a1.979,1.979,0,1,0,1.979,3.428l5.84-3.365A1.979,1.979,0,0,0,404.409,141.839Z" transform="translate(-321.593 -114.706)" fill="url(#linear-gradient)"/>
      <path id="Path_5403" data-name="Path 5403" d="M73.123,144.457l-.023-.013-5.84-3.365a1.979,1.979,0,0,0-2,3.415l.023.013h0l5.84,3.365a1.979,1.979,0,1,0,2-3.415Z" transform="translate(-52.352 -114.681)" fill="url(#linear-gradient)"/>
      <path id="Path_5404" data-name="Path 5404" d="M337.973,64.67a1.979,1.979,0,0,0-2.686.72l-3.365,5.84a1.979,1.979,0,1,0,3.428,1.979l3.365-5.84A1.979,1.979,0,0,0,337.973,64.67Z" transform="translate(-270.119 -52.46)" fill="url(#linear-gradient)"/>
    </g>
  </g>
</svg>
