<svg xmlns="http://www.w3.org/2000/svg" xmlns:xlink="http://www.w3.org/1999/xlink" width="88" height="97" viewBox="0 0 88 97">
  <defs>
    <linearGradient id="linear-gradient" x1="0.202" y1="0.196" x2="1.024" y2="0.978" gradientUnits="objectBoundingBox">
      <stop offset="0" stop-color="#2ba59a"/>
      <stop offset="1" stop-color="#42e0d1" stop-opacity="0.898"/>
    </linearGradient>
  </defs>
  <g id="feature3" transform="translate(-1102 -1940)">
    <g id="ICON" transform="translate(179.657 1688.219)">
      <g id="Group_5038" data-name="Group 5038">
        <g id="Group_4976" data-name="Group 4976">
          <g id="Group_4975" data-name="Group 4975">
            <g id="Group_4974" data-name="Group 4974">
              <g id="Group_4973" data-name="Group 4973">
                <path id="Path_4790" data-name="Path 4790" d="M991.195,348.782H934.32A11.944,11.944,0,0,1,922.342,336.9V287.112A11.943,11.943,0,0,1,934.32,275.23h1.992v3.378H934.32a8.548,8.548,0,0,0-8.573,8.5V336.9a8.549,8.549,0,0,0,8.573,8.506h56.875a8.549,8.549,0,0,0,8.574-8.506V323.859h3.4V336.9A11.946,11.946,0,0,1,991.195,348.782Z"/>
              </g>
            </g>
          </g>
        </g>
        <g id="Group_4980" data-name="Group 4980">
          <g id="Group_4979" data-name="Group 4979">
            <g id="Group_4978" data-name="Group 4978">
              <g id="Group_4977" data-name="Group 4977">
                <path id="Path_4791" data-name="Path 4791" d="M1003.173,303h-3.4V287.112a8.549,8.549,0,0,0-8.574-8.5h-.715V275.23h.715a11.944,11.944,0,0,1,11.979,11.882Z"/>
              </g>
            </g>
          </g>
        </g>
        <g id="Group_4984" data-name="Group 4984">
          <g id="Group_4983" data-name="Group 4983">
            <g id="Group_4982" data-name="Group 4982">
              <g id="Group_4981" data-name="Group 4981">
                <path id="Path_4792" data-name="Path 4792" d="M1010.342,325.547H990.48a12.12,12.12,0,1,1,0-24.239h19.862ZM990.48,304.686a8.742,8.742,0,1,0,0,17.484h16.458V304.686Z"/>
              </g>
            </g>
          </g>
        </g>
        <g id="Group_4988" data-name="Group 4988">
          <g id="Group_4987" data-name="Group 4987">
            <g id="Group_4986" data-name="Group 4986">
              <g id="Group_4985" data-name="Group 4985">
                <path id="Path_4793" data-name="Path 4793" d="M991.435,319.858a6.43,6.43,0,1,1,6.482-6.429A6.463,6.463,0,0,1,991.435,319.858Zm0-9.482a3.053,3.053,0,1,0,3.078,3.053A3.069,3.069,0,0,0,991.435,310.375Z"/>
              </g>
            </g>
          </g>
        </g>
        <g id="Group_4992" data-name="Group 4992">
          <g id="Group_4991" data-name="Group 4991">
            <g id="Group_4990" data-name="Group 4990">
              <g id="Group_4989" data-name="Group 4989">
                <rect id="Rectangle_304" data-name="Rectangle 304" width="68.824" height="3.378" transform="translate(932.169 285.187)"/>
              </g>
            </g>
          </g>
        </g>
        <g id="Group_4996" data-name="Group 4996">
          <g id="Group_4995" data-name="Group 4995">
            <g id="Group_4994" data-name="Group 4994">
              <g id="Group_4993" data-name="Group 4993">
                <rect id="Rectangle_305" data-name="Rectangle 305" width="7.886" height="3.378" transform="translate(973.034 334.498)"/>
              </g>
            </g>
          </g>
        </g>
        <g id="Group_5000" data-name="Group 5000">
          <g id="Group_4999" data-name="Group 4999">
            <g id="Group_4998" data-name="Group 4998">
              <g id="Group_4997" data-name="Group 4997">
                <rect id="Rectangle_306" data-name="Rectangle 306" width="7.886" height="3.378" transform="translate(988.328 334.498)"/>
              </g>
            </g>
          </g>
        </g>
        <g id="Group_5004" data-name="Group 5004">
          <g id="Group_5003" data-name="Group 5003">
            <g id="Group_5002" data-name="Group 5002">
              <g id="Group_5001" data-name="Group 5001">
                <rect id="Rectangle_307" data-name="Rectangle 307" width="7.885" height="3.378" transform="translate(943.402 334.498)"/>
              </g>
            </g>
          </g>
        </g>
        <g id="Group_5008" data-name="Group 5008">
          <g id="Group_5007" data-name="Group 5007">
            <g id="Group_5006" data-name="Group 5006">
              <g id="Group_5005" data-name="Group 5005">
                <rect id="Rectangle_308" data-name="Rectangle 308" width="7.885" height="3.378" transform="translate(958.696 334.498)"/>
              </g>
            </g>
          </g>
        </g>
        <g id="Group_5012" data-name="Group 5012">
          <g id="Group_5011" data-name="Group 5011">
            <g id="Group_5010" data-name="Group 5010">
              <g id="Group_5009" data-name="Group 5009">
                <rect id="Rectangle_309" data-name="Rectangle 309" width="7.886" height="3.378" transform="translate(929.062 334.498)"/>
              </g>
            </g>
          </g>
        </g>
        <g id="Group_5037" data-name="Group 5037">
          <g id="Group_5016" data-name="Group 5016">
            <g id="Group_5015" data-name="Group 5015">
              <g id="Group_5014" data-name="Group 5014">
                <g id="Group_5013" data-name="Group 5013">
                  <path id="Path_4794" data-name="Path 4794" d="M983.987,286.337l-2.41-.839a21.889,21.889,0,0,0,1.251-7.326,22.3,22.3,0,0,0-44.6,0,21.937,21.937,0,0,0,1.006,6.586l-2.438.753a24.449,24.449,0,0,1-1.122-7.339,24.856,24.856,0,0,1,49.71,0A24.416,24.416,0,0,1,983.987,286.337Z"/>
                </g>
              </g>
            </g>
          </g>
          <g id="Group_5020" data-name="Group 5020">
            <g id="Group_5019" data-name="Group 5019">
              <g id="Group_5018" data-name="Group 5018">
                <g id="Group_5017" data-name="Group 5017">
                  <path id="Path_4795" data-name="Path 4795" d="M990.737,286.822l-2.407-.841a23.522,23.522,0,0,0,1.35-7.876,24.145,24.145,0,0,0-33.458-21.92l-.992-2.334a26.7,26.7,0,0,1,37,24.254A26.013,26.013,0,0,1,990.737,286.822Z"/>
                </g>
              </g>
            </g>
          </g>
          <g id="Group_5024" data-name="Group 5024">
            <g id="Group_5023" data-name="Group 5023">
              <g id="Group_5022" data-name="Group 5022">
                <g id="Group_5021" data-name="Group 5021">
                  <rect id="Rectangle_310" data-name="Rectangle 310" width="6.985" height="2.533" transform="translate(971.88 256.113)"/>
                </g>
              </g>
            </g>
          </g>
          <g id="Group_5028" data-name="Group 5028">
            <g id="Group_5027" data-name="Group 5027">
              <g id="Group_5026" data-name="Group 5026">
                <g id="Group_5025" data-name="Group 5025">
                  <rect id="Rectangle_311" data-name="Rectangle 311" width="6.987" height="2.533" transform="translate(979.738 263.044)"/>
                </g>
              </g>
            </g>
          </g>
          <g id="Group_5032" data-name="Group 5032">
            <g id="Group_5031" data-name="Group 5031">
              <g id="Group_5030" data-name="Group 5030">
                <g id="Group_5029" data-name="Group 5029">
                  <rect id="Rectangle_312" data-name="Rectangle 312" width="6.113" height="2.533" transform="translate(984.105 271.707)"/>
                </g>
              </g>
            </g>
          </g>
          <g id="Group_5036" data-name="Group 5036">
            <g id="Group_5035" data-name="Group 5035">
              <g id="Group_5034" data-name="Group 5034">
                <g id="Group_5033" data-name="Group 5033">
                  <rect id="Rectangle_313" data-name="Rectangle 313" width="6.113" height="2.533" transform="translate(984.105 280.37)"/>
                </g>
              </g>
            </g>
          </g>
        </g>
      </g>
    </g>
    <path id="Color_Overlay" data-name="Color Overlay" d="M1113.977,2037A11.944,11.944,0,0,1,1102,2025.117v-49.785a11.943,11.943,0,0,1,11.977-11.883h1.528a24.793,24.793,0,0,1,19.47-21.171l-.089-.21a26.738,26.738,0,0,1,36.85,21.413,11.938,11.938,0,0,1,11.094,11.85v14.2H1190v24.239h-7.168v11.351A11.946,11.946,0,0,1,1170.851,2037Zm-8.573-61.669v49.785a8.548,8.548,0,0,0,8.573,8.506h56.875a8.549,8.549,0,0,0,8.574-8.506v-11.351h-9.289a12.12,12.12,0,1,1,0-24.239h9.289v-12.744h-67.6v-3.378h4.524a24.468,24.468,0,0,1-1.018-6.579h-1.355A8.548,8.548,0,0,0,1105.4,1975.332Zm55.92,26.316a8.787,8.787,0,0,0,8.813,8.741h16.457v-17.483h-16.457A8.787,8.787,0,0,0,1161.324,2001.648Zm9.59-28.242h8.291a8.571,8.571,0,0,0-7.321-6.518A25.994,25.994,0,0,1,1170.914,1973.406Zm-6.894,0h4.233a23.374,23.374,0,0,0,.595-2.283h-4.265Q1164.357,1972.277,1164.02,1973.406Zm-46.138-7.015a21.916,21.916,0,0,0,1.006,6.586l-1.387.428h43.841a21.919,21.919,0,0,0,1.143-7.015,22.3,22.3,0,0,0-44.6,0Zm47.156,0q0,1.106-.1,2.2h4.288q.108-1.127.108-2.265a23.586,23.586,0,0,0-.318-3.865h-4.3A24.532,24.532,0,0,1,1165.038,1966.391Zm-.867-6.465h4.28a23.53,23.53,0,0,0-2.732-6.131h-4.174A24.433,24.433,0,0,1,1164.172,1959.926Zm-4.373-8.663h4.084a24.181,24.181,0,0,0-5.36-4.784v.387h-3.175A24.988,24.988,0,0,1,1159.8,1951.263Zm-8.261-6.8v-.127h2.9a24.18,24.18,0,0,0-7.818-1.761A24.834,24.834,0,0,1,1151.537,1944.459Zm16.448,81.636v-3.378h7.886v3.378Zm-15.294,0v-3.378h7.886v3.378Zm-14.339,0v-3.378h7.885v3.378Zm-15.294,0v-3.378h7.885v3.378Zm-14.34,0v-3.378h7.887v3.378Zm55.89-24.448a6.482,6.482,0,1,1,6.483,6.43A6.465,6.465,0,0,1,1164.609,2001.648Zm3.4,0a3.078,3.078,0,1,0,3.078-3.054A3.069,3.069,0,0,0,1168.014,2001.648Z" opacity="0.967" fill="url(#linear-gradient)"/>
  </g>
</svg>
