<svg xmlns="http://www.w3.org/2000/svg" xmlns:xlink="http://www.w3.org/1999/xlink" width="82" height="98.999" viewBox="0 0 82 98.999">
  <defs>
    <linearGradient id="linear-gradient" x1="0.202" y1="0.196" x2="1.024" y2="0.978" gradientUnits="objectBoundingBox">
      <stop offset="0" stop-color="#2ba59a"/>
      <stop offset="1" stop-color="#42e0d1" stop-opacity="0.898"/>
    </linearGradient>
  </defs>
  <g id="feature1" transform="translate(-299 -1939)">
    <g id="ICON" transform="translate(-329.817 1242.709)">
      <g id="Group_5235" data-name="Group 5235">
        <g id="Group_5222" data-name="Group 5222">
          <g id="Group_5221" data-name="Group 5221">
            <g id="Group_5220" data-name="Group 5220">
              <g id="Group_5219" data-name="Group 5219">
                <path id="Path_4824" data-name="Path 4824" d="M670.724,795.29a10.163,10.163,0,0,1-2.586-.331c-9.224-2.417-39.321-12.4-39.321-39.42V719.882a7.307,7.307,0,0,1,6.585-7.149c13.58-1.575,24.059-9.726,29.094-14.445a7.558,7.558,0,0,1,10.457.213c4.649,4.7,14.627,12.793,29.209,14.265a7.265,7.265,0,0,1,6.656,7.151v37.317c0,22.573-23.5,32.115-33.54,36.19-.951.385-1.8.732-2.517,1.04A10.246,10.246,0,0,1,670.724,795.29Zm-1.12-95.26a3.576,3.576,0,0,0-2.449.956c-5.382,5.043-16.607,13.758-31.3,15.463h0a3.531,3.531,0,0,0-3.2,3.433v35.657c0,24.354,27.924,33.563,36.48,35.807a6.315,6.315,0,0,0,4.08-.307c.738-.316,1.609-.672,2.589-1.068,10.12-4.109,31.178-12.66,31.178-32.736V719.917a3.5,3.5,0,0,0-3.215-3.43c-15.794-1.594-26.562-10.325-31.574-15.386A3.639,3.639,0,0,0,669.6,700.029Z"/>
              </g>
            </g>
          </g>
        </g>
        <g id="Group_5226" data-name="Group 5226">
          <g id="Group_5225" data-name="Group 5225">
            <g id="Group_5224" data-name="Group 5224">
              <g id="Group_5223" data-name="Group 5223">
                <path id="Path_4825" data-name="Path 4825" d="M669.816,768.023c-12.567,0-22.793-9.975-22.793-22.236s10.225-22.236,22.793-22.236,22.794,9.975,22.794,22.236S682.386,768.023,669.816,768.023Zm0-40.73a18.5,18.5,0,1,0,18.958,18.494A18.751,18.751,0,0,0,669.816,727.293Z"/>
              </g>
            </g>
          </g>
        </g>
        <g id="Group_5230" data-name="Group 5230">
          <g id="Group_5229" data-name="Group 5229">
            <g id="Group_5228" data-name="Group 5228">
              <g id="Group_5227" data-name="Group 5227">
                <path id="Path_4826" data-name="Path 4826" d="M670.3,752.16a1.932,1.932,0,0,1-1.37-.561l-10.492-10.45a1.839,1.839,0,0,1,.027-2.646,1.953,1.953,0,0,1,2.714.028l10.49,10.448a1.841,1.841,0,0,1-.027,2.648A1.945,1.945,0,0,1,670.3,752.16Z"/>
              </g>
            </g>
          </g>
        </g>
        <g id="Group_5234" data-name="Group 5234">
          <g id="Group_5233" data-name="Group 5233">
            <g id="Group_5232" data-name="Group 5232">
              <g id="Group_5231" data-name="Group 5231">
                <path id="Path_4827" data-name="Path 4827" d="M670.3,752.16a1.93,1.93,0,0,1-1.51-.717,1.84,1.84,0,0,1,.326-2.627L695.808,728.4a1.955,1.955,0,0,1,2.693.318,1.84,1.84,0,0,1-.326,2.627l-26.694,20.419A1.938,1.938,0,0,1,670.3,752.16Z"/>
              </g>
            </g>
          </g>
        </g>
      </g>
    </g>
    <path id="Color_Overlay" data-name="Color Overlay" d="M338.322,2037.668c-9.224-2.417-39.321-12.4-39.321-39.419V1962.59a7.307,7.307,0,0,1,6.583-7.149c13.581-1.576,24.06-9.726,29.094-14.445a7.557,7.557,0,0,1,10.457.213c4.65,4.7,14.628,12.793,29.21,14.265a7.265,7.265,0,0,1,6.655,7.151v37.317c0,22.573-23.5,32.116-33.54,36.191-.95.385-1.8.732-2.516,1.04a10.254,10.254,0,0,1-4.038.824A10.133,10.133,0,0,1,338.322,2037.668Zm-.985-93.973c-5.383,5.043-16.607,13.758-31.3,15.463a3.531,3.531,0,0,0-3.2,3.433v35.658c0,24.354,27.923,33.563,36.48,35.807a6.319,6.319,0,0,0,4.081-.307c.738-.316,1.608-.671,2.588-1.068,10.121-4.109,31.18-12.66,31.18-32.737v-37.317a3.5,3.5,0,0,0-3.215-3.43c-15.8-1.594-26.562-10.325-31.574-15.385a3.639,3.639,0,0,0-2.589-1.072A3.577,3.577,0,0,0,337.337,1943.695Zm-20.13,44.8c0-12.262,10.226-22.236,22.792-22.236a22.942,22.942,0,0,1,19.1,10.116l6.889-5.27a1.956,1.956,0,0,1,2.694.318,1.841,1.841,0,0,1-.328,2.627l-7.412,5.671a21.654,21.654,0,0,1,1.849,8.774c0,12.262-10.226,22.235-22.8,22.235S317.207,2000.758,317.207,1988.5Zm3.837,0a18.963,18.963,0,0,0,37.914,0,17.991,17.991,0,0,0-1.158-6.368l-16.093,12.31a1.967,1.967,0,0,1-.351.226l-.005,0-.023.011-.028.013h0a1.968,1.968,0,0,1-.636.17h0l-.035,0h-.031l-.029,0h-.194l-.017,0h-.007l-.021,0h0l-.051-.005h0l-.022,0h-.005l-.02,0h-.006l-.019,0h-.006l-.02,0h-.005l-.022,0h0l-.052-.01h0l-.022,0-.008,0-.016,0-.009,0-.015,0-.01,0-.014,0-.011,0-.013,0-.013,0-.01,0a1.917,1.917,0,0,1-.877-.533l-10.445-10.4a1.838,1.838,0,0,1,.027-2.646,1.952,1.952,0,0,1,2.714.029l9.289,9.251,15.422-11.8A19.07,19.07,0,0,0,340,1970,18.751,18.751,0,0,0,321.044,1988.5Z" opacity="0.967" fill="url(#linear-gradient)"/>
  </g>
</svg>
