<svg xmlns="http://www.w3.org/2000/svg" width="26.336" height="26.341" viewBox="0 0 26.336 26.341">
  <g id="light-inactive" transform="translate(-503.458 -61.27)">
    <path id="Path_21" data-name="Path 21" d="M572.161,98.406a1.079,1.079,0,0,1-1.169.718c-.788-.021-1.576,0-2.365-.007a.942.942,0,0,1-.921-.65.854.854,0,0,1,.328-.977,1.28,1.28,0,0,1,.619-.2c.839-.022,1.679-.009,2.519-.009a1,1,0,0,1,.989.712Z" transform="translate(-42.367 -23.76)" fill="#fff"/>
    <path id="Path_22" data-name="Path 22" d="M540.171,129.995a1.08,1.08,0,0,1-.718-1.169c.021-.779,0-1.56.007-2.34a.922.922,0,0,1,1.082-.968.911.911,0,0,1,.747.891q.021,1.336,0,2.674a.973.973,0,0,1-.707.912Z" transform="translate(-23.751 -42.384)" fill="#fff"/>
    <path id="Path_23" data-name="Path 23" d="M535.96,87.1a6.624,6.624,0,1,1-6.675-6.581A6.647,6.647,0,0,1,535.96,87.1Zm-1.836.05a4.793,4.793,0,1,0-4.795,4.785A4.732,4.732,0,0,0,534.124,87.152Z" transform="translate(-12.705 -12.703)" fill="#fff"/>
    <path id="Path_24" data-name="Path 24" d="M505.7,99.119c-.419,0-.839,0-1.259,0a.912.912,0,0,1-.979-.9.926.926,0,0,1,.978-.933q1.271-.01,2.543,0a.918.918,0,1,1,0,1.833C506.552,99.124,506.124,99.119,505.7,99.119Z" transform="translate(0 -23.761)" fill="#fff"/>
    <path id="Path_25" data-name="Path 25" d="M541.3,63.507c0,.419,0,.839,0,1.258a.92.92,0,1,1-1.834.005q-.008-1.258,0-2.516a.919.919,0,1,1,1.833,0C541.307,62.668,541.3,63.088,541.3,63.507Z" transform="translate(-23.758)" fill="#fff"/>
    <path id="Path_26" data-name="Path 26" d="M560.419,117.206a1.738,1.738,0,0,1,.479.26c.657.628,1.3,1.273,1.932,1.923a.889.889,0,1,1-1.255,1.258q-.965-.944-1.909-1.91a.834.834,0,0,1-.18-.993A.958.958,0,0,1,560.419,117.206Z" transform="translate(-36.911 -36.91)" fill="#fff"/>
    <path id="Path_27" data-name="Path 27" d="M559.525,74.526a1.8,1.8,0,0,1,.267-.489c.621-.651,1.26-1.285,1.9-1.913a.887.887,0,1,1,1.271,1.238c-.63.654-1.275,1.294-1.926,1.928a.841.841,0,0,1-.994.183A.933.933,0,0,1,559.525,74.526Z" transform="translate(-36.996 -6.979)" fill="#fff"/>
    <path id="Path_28" data-name="Path 28" d="M517.683,118.151a2.584,2.584,0,0,1-.323.586c-.621.651-1.26,1.285-1.9,1.913a.887.887,0,1,1-1.264-1.245c.63-.654,1.275-1.294,1.926-1.927a.837.837,0,0,1,.995-.178A1.015,1.015,0,0,1,517.683,118.151Z" transform="translate(-6.909 -36.911)" fill="#fff"/>
    <path id="Path_29" data-name="Path 29" d="M517.684,74.65a1.026,1.026,0,0,1-.542.816.834.834,0,0,1-.9-.056,1.151,1.151,0,0,1-.178-.147c-.613-.611-1.228-1.22-1.835-1.836a.87.87,0,0,1-.217-1.032.837.837,0,0,1,.864-.516,1.1,1.1,0,0,1,.566.256q.987.938,1.927,1.926A2.459,2.459,0,0,1,517.684,74.65Z" transform="translate(-6.909 -6.995)" fill="#fff"/>
  </g>
</svg>
