<svg xmlns="http://www.w3.org/2000/svg" xmlns:xlink="http://www.w3.org/1999/xlink" width="150" height="62.08" viewBox="0 0 150 62.08">
  <defs>
    <linearGradient id="linear-gradient" x1="5.913" y1="1.058" x2="5.38" y2="1.674" gradientUnits="objectBoundingBox">
      <stop offset="0" stop-color="#00dffe"/>
      <stop offset="0.525" stop-color="#00f5ff"/>
      <stop offset="1" stop-color="#23fccf"/>
    </linearGradient>
    <radialGradient id="radial-gradient" cx="0.896" cy="0.055" r="0.985" gradientTransform="translate(-0.001) scale(1.01 1)" gradientUnits="objectBoundingBox">
      <stop offset="0" stop-color="#060606" stop-opacity="0.475"/>
      <stop offset="0.11" stop-color="#030509" stop-opacity="0.255"/>
      <stop offset="0.451" stop-color="#00040c" stop-opacity="0"/>
      <stop offset="0.659" stop-color="#144a4c" stop-opacity="0"/>
      <stop offset="1" stop-color="#2afdc5" stop-opacity="0"/>
    </radialGradient>
  </defs>
  <g id="Layer_1_copy" data-name="Layer 1 copy" transform="translate(-422.807 -465.925)">
    <g id="Group_5392" data-name="Group 5392" transform="translate(422.807 465.925)">
      <path id="Path_4983" data-name="Path 4983" d="M453.8,465.925a2.576,2.576,0,0,0-2.576,2.576v11.817a20.182,20.182,0,0,0-4.308-2.05,19.6,19.6,0,0,0-5.562-.879,18.551,18.551,0,0,0,0,37.1,18.266,18.266,0,0,0,18.18-18.551V468.5a2.576,2.576,0,0,0-2.576-2.576ZM441.43,485.666c5.69,0,9.76,4.585,9.76,10.275a10.676,10.676,0,0,1-2.412,6.892,9.427,9.427,0,0,1-7.349,3.383,10.275,10.275,0,1,1,0-20.55Z" transform="translate(-422.807 -465.925)" fill-rule="evenodd" fill="url(#linear-gradient)"/>
      <path id="Path_4984" data-name="Path 4984" d="M441.358,668.8a18.551,18.551,0,1,0,0,37.1,18.266,18.266,0,0,0,18.18-18.551h-8.311V671.732a9.639,9.639,0,0,0-.847-.523A18.611,18.611,0,0,0,441.358,668.8Zm.072,8.276c5.69,0,9.76,4.585,9.76,10.275a10.676,10.676,0,0,1-2.412,6.892,9.427,9.427,0,0,1-7.349,3.383,10.275,10.275,0,1,1,0-20.55Z" transform="translate(-422.807 -657.338)" fill-rule="evenodd" fill="url(#radial-gradient)"/>
    </g>
    <g id="Group_5394" data-name="Group 5394" transform="translate(475.661 469.557)">
      <path id="Path_4985" data-name="Path 4985" d="M1358.11,605.911h15.641a21.98,21.98,0,0,1,9.91,2.139,16.016,16.016,0,0,1,6.689,6.025,18.356,18.356,0,0,1,0,18.1,16.015,16.015,0,0,1-6.689,6.025,21.98,21.98,0,0,1-9.91,2.14H1358.11Zm15.246,27.887a11.569,11.569,0,0,0,8.238-2.877,11.421,11.421,0,0,0,0-15.591,11.569,11.569,0,0,0-8.238-2.877h-7.279V633.8Z" transform="translate(-1358.11 -601.632)" fill="#fff" fill-rule="evenodd"/>
      <path id="Path_4986" data-name="Path 4986" d="M2035.4,740.336V766.8h-7.328v-3.049q-2.852,3.443-8.263,3.443a13.745,13.745,0,0,1-6.762-1.672,11.97,11.97,0,0,1-4.746-4.771,15.835,15.835,0,0,1,0-14.361,11.971,11.971,0,0,1,4.746-4.771,13.742,13.742,0,0,1,6.762-1.672,10.065,10.065,0,0,1,7.919,3.2v-2.8Zm-14.263,20.558a6.414,6.414,0,0,0,4.82-1.991,8.384,8.384,0,0,0,0-10.673,6.887,6.887,0,0,0-9.689,0,8.382,8.382,0,0,0,0,10.673A6.471,6.471,0,0,0,2021.138,760.894Z" transform="translate(-1969.935 -728.089)" fill="#fff" fill-rule="evenodd"/>
      <g id="Group_5393" data-name="Group 5393" transform="translate(69.169 0)">
        <path id="Path_4987" data-name="Path 4987" d="M2589.6,573.411h17.1l-.352,5.9h-16.549v19.968h-7.672V572.23a9.654,9.654,0,0,1,2.68-7.181q2.681-2.656,7.55-2.656a14.085,14.085,0,0,1,3.271.369,7.949,7.949,0,0,1,2.582,1.057l-2.016,5.558a5.249,5.249,0,0,0-3.1-.934q-3.493,0-3.492,3.836Z" transform="translate(-2582.12 -560.574)" fill="#fff" fill-rule="evenodd"/>
        <path id="Path_4988" data-name="Path 4988" d="M2924.88,757.4h7.673v25.868h-7.673Z" transform="translate(-2905.511 -744.557)" fill="#fff" fill-rule="evenodd"/>
        <path id="Path_4989" data-name="Path 4989" d="M2913.121,538.754a4.865,4.865,0,0,1-3.442-1.23,4.165,4.165,0,0,1,0-6.1,4.865,4.865,0,0,1,3.442-1.23,4.987,4.987,0,0,1,3.443,1.18,3.783,3.783,0,0,1,1.328,2.951,4.174,4.174,0,0,1-1.328,3.172A4.809,4.809,0,0,1,2913.121,538.754Z" transform="translate(-2889.915 -530.196)" fill="#fff" fill-rule="evenodd"/>
      </g>
    </g>
    <g id="Group_5395" data-name="Group 5395" transform="translate(481.851 520.244)">
      <path id="Path_4990" data-name="Path 4990" d="M1467.65,1430.43h1.472a8.478,8.478,0,0,1,1.708.111,1.9,1.9,0,0,1,1.035.64,2.067,2.067,0,0,1,.01,2.437,1.923,1.923,0,0,1-1.08.645,9.542,9.542,0,0,1-1.879.121h-.527v3.436h-.739Zm.739.719v2.511l1.25.015a3.264,3.264,0,0,0,1.11-.138,1.137,1.137,0,0,0,.553-.448,1.239,1.239,0,0,0,.2-.691,1.223,1.223,0,0,0-.2-.68,1.107,1.107,0,0,0-.53-.44,3.181,3.181,0,0,0-1.078-.131Z" transform="translate(-1467.65 -1430.245)" fill="#f2f2f4" fill-rule="evenodd"/>
      <path id="Path_4991" data-name="Path 4991" d="M1650.2,1430.43h1.472a8.946,8.946,0,0,1,1.668.1,1.905,1.905,0,0,1,1.07.646,1.838,1.838,0,0,1,.412,1.218,1.966,1.966,0,0,1-.284,1.06,1.768,1.768,0,0,1-.811.691,3.733,3.733,0,0,1-1.457.239l2.657,3.436h-.914l-2.652-3.436h-.422v3.436h-.739Zm.739.724v2.511l1.271.01a3.159,3.159,0,0,0,1.093-.141,1.138,1.138,0,0,0,.552-.449,1.254,1.254,0,0,0,.2-.691,1.2,1.2,0,0,0-.2-.675,1.118,1.118,0,0,0-.527-.435,3.208,3.208,0,0,0-1.086-.13Z" transform="translate(-1639.884 -1430.245)" fill="#f2f2f4" fill-rule="evenodd"/>
      <path id="Path_4992" data-name="Path 4992" d="M1832.153,1427.15a3.831,3.831,0,0,1,2.809,1.12,3.885,3.885,0,0,1-2.748,6.641,3.779,3.779,0,0,1-2.773-1.125,3.7,3.7,0,0,1-1.13-2.723,3.936,3.936,0,0,1,.514-1.974,3.8,3.8,0,0,1,3.328-1.939Zm.035.723a3.039,3.039,0,0,0-1.552.427,3.072,3.072,0,0,0-1.146,1.151,3.2,3.2,0,0,0-.412,1.613,3.1,3.1,0,0,0,3.109,3.13,3.154,3.154,0,0,0,1.59-.417,2.987,2.987,0,0,0,1.14-1.141,3.208,3.208,0,0,0,.409-1.608,3.128,3.128,0,0,0-.409-1.59,3.059,3.059,0,0,0-1.153-1.138A3.123,3.123,0,0,0,1832.188,1427.873Z" transform="translate(-1807.929 -1427.15)" fill="#f2f2f4" fill-rule="evenodd"/>
      <path id="Path_4993" data-name="Path 4993" d="M2053.26,1431.149v-.719h4.054v.719h-1.648v6.671h-.753v-6.671Z" transform="translate(-2020.167 -1430.245)" fill="#f2f2f4" fill-rule="evenodd"/>
      <path id="Path_4994" data-name="Path 4994" d="M2215.914,1427.15a3.829,3.829,0,0,1,2.808,1.12,3.884,3.884,0,0,1-2.748,6.641,3.779,3.779,0,0,1-2.773-1.125,3.7,3.7,0,0,1-1.131-2.723,3.935,3.935,0,0,1,.515-1.974,3.8,3.8,0,0,1,3.328-1.939Zm.035.723a3.145,3.145,0,0,0-2.7,1.577,3.2,3.2,0,0,0-.412,1.613,3.1,3.1,0,0,0,3.109,3.13,3.154,3.154,0,0,0,1.59-.417,2.989,2.989,0,0,0,1.141-1.141,3.205,3.205,0,0,0,.409-1.608,3.126,3.126,0,0,0-.409-1.59,3.063,3.063,0,0,0-1.153-1.138A3.125,3.125,0,0,0,2215.948,1427.873Z" transform="translate(-2170.003 -1427.15)" fill="#f2f2f4" fill-rule="evenodd"/>
      <path id="Path_4995" data-name="Path 4995" d="M2451.184,1428.707l-.583.447a3.188,3.188,0,0,0-1.158-.952,3.391,3.391,0,0,0-1.484-.324,3.278,3.278,0,0,0-1.637.425,3.038,3.038,0,0,0-1.168,1.14,3.161,3.161,0,0,0-.415,1.61,3.023,3.023,0,0,0,.927,2.255,3.212,3.212,0,0,0,2.338.9,3.287,3.287,0,0,0,2.6-1.215l.583.442a3.716,3.716,0,0,1-1.379,1.088,4.326,4.326,0,0,1-1.846.384,3.839,3.839,0,0,1-3.059-1.291,3.892,3.892,0,0,1-.94-2.632,3.658,3.658,0,0,1,1.138-2.73,3.921,3.921,0,0,1,2.851-1.108,4.18,4.18,0,0,1,1.868.409A3.623,3.623,0,0,1,2451.184,1428.707Z" transform="translate(-2388.789 -1427.15)" fill="#f2f2f4" fill-rule="evenodd"/>
      <path id="Path_4996" data-name="Path 4996" d="M2670.183,1427.15a3.831,3.831,0,0,1,2.809,1.12,3.885,3.885,0,0,1-2.748,6.641,3.779,3.779,0,0,1-2.773-1.125,3.7,3.7,0,0,1-1.13-2.723,3.932,3.932,0,0,1,.515-1.974,3.8,3.8,0,0,1,3.327-1.939Zm.035.723a3.039,3.039,0,0,0-1.552.427,3.07,3.07,0,0,0-1.146,1.151,3.2,3.2,0,0,0-.412,1.613,3.105,3.105,0,0,0,3.109,3.13,3.153,3.153,0,0,0,1.59-.417,2.984,2.984,0,0,0,1.14-1.141,3.2,3.2,0,0,0,.409-1.608,3.124,3.124,0,0,0-.409-1.59,3.058,3.058,0,0,0-1.152-1.138A3.125,3.125,0,0,0,2670.218,1427.873Z" transform="translate(-2598.602 -1427.15)" fill="#f2f2f4" fill-rule="evenodd"/>
      <path id="Path_4997" data-name="Path 4997" d="M2904.27,1430.43h.744v6.677h2.838v.713h-3.582Z" transform="translate(-2823.086 -1430.245)" fill="#f2f2f4" fill-rule="evenodd"/>
    </g>
  </g>
</svg>
