<svg xmlns="http://www.w3.org/2000/svg" width="455" height="118" viewBox="0 0 455 118">
  <g id="Progress_bar" data-name="Progress bar" transform="translate(-226 -991)">
    <rect id="bg" width="455" height="118" rx="5" transform="translate(226 991)" fill="#262835"/>
    <path id="Path_5268" data-name="Path 5268" d="M-124.142.157a3.278,3.278,0,0,0,3.466-3.336,3.166,3.166,0,0,0-3.261-3.268,2.854,2.854,0,0,0-2.4,1.135h-.021l.39-3.719h4.7v-.834h-5.469l-.533,5.53h.841a2.6,2.6,0,0,1,2.345-1.306,2.4,2.4,0,0,1,2.475,2.481A2.409,2.409,0,0,1-124.128-.67a2.279,2.279,0,0,1-2.406-1.9h-.916A3.092,3.092,0,0,0-124.142.157Zm9.548,0c2.242,0,3.568-1.982,3.568-5.1,0-3.1-1.333-5.079-3.568-5.079s-3.575,1.989-3.575,5.086C-118.169-1.818-116.836.157-114.594.157Zm0-.82c-1.668,0-2.632-1.661-2.632-4.279,0-2.57.984-4.252,2.632-4.252s2.632,1.668,2.632,4.259C-111.962-2.324-112.926-.663-114.594-.663Zm9.754.82c2.242,0,3.568-1.982,3.568-5.1,0-3.1-1.333-5.079-3.568-5.079s-3.575,1.989-3.575,5.086C-108.415-1.818-107.082.157-104.84.157Zm0-.82c-1.668,0-2.632-1.661-2.632-4.279,0-2.57.984-4.252,2.632-4.252s2.632,1.668,2.632,4.259C-102.208-2.324-103.172-.663-104.84-.663Zm6.629,2.55.861-3.295h-.964l-.656,3.295Zm7.45-1.729c2.242,0,3.568-1.982,3.568-5.1,0-3.1-1.333-5.079-3.568-5.079s-3.575,1.989-3.575,5.086C-94.336-1.818-93,.157-90.761.157Zm0-.82c-1.668,0-2.632-1.661-2.632-4.279,0-2.57.984-4.252,2.632-4.252s2.632,1.668,2.632,4.259C-88.129-2.324-89.093-.663-90.761-.663Zm9.754.82c2.242,0,3.568-1.982,3.568-5.1,0-3.1-1.333-5.079-3.568-5.079s-3.575,1.989-3.575,5.086C-84.582-1.818-83.249.157-81.007.157Zm0-.82c-1.668,0-2.632-1.661-2.632-4.279,0-2.57.984-4.252,2.632-4.252s2.632,1.668,2.632,4.259C-78.375-2.324-79.339-.663-81.007-.663Zm9.754.82c2.242,0,3.568-1.982,3.568-5.1,0-3.1-1.333-5.079-3.568-5.079s-3.575,1.989-3.575,5.086C-74.829-1.818-73.5.157-71.254.157Zm0-.82c-1.668,0-2.632-1.661-2.632-4.279,0-2.57.984-4.252,2.632-4.252s2.632,1.668,2.632,4.259C-68.622-2.324-69.586-.663-71.254-.663Zm6.629,2.55.861-3.295h-.964l-.656,3.295Zm7.45-1.729c2.242,0,3.568-1.982,3.568-5.1,0-3.1-1.333-5.079-3.568-5.079S-60.75-8.032-60.75-4.936C-60.75-1.818-59.417.157-57.174.157Zm0-.82c-1.668,0-2.632-1.661-2.632-4.279,0-2.57.984-4.252,2.632-4.252s2.632,1.668,2.632,4.259C-54.543-2.324-55.506-.663-57.174-.663Zm9.754.82c2.242,0,3.568-1.982,3.568-5.1,0-3.1-1.333-5.079-3.568-5.079S-51-8.032-51-4.936C-51-1.818-49.663.157-47.421.157Zm0-.82c-1.668,0-2.632-1.661-2.632-4.279,0-2.57.984-4.252,2.632-4.252s2.632,1.668,2.632,4.259C-44.789-2.324-45.753-.663-47.421-.663Zm9.754.82c2.242,0,3.568-1.982,3.568-5.1,0-3.1-1.333-5.079-3.568-5.079s-3.575,1.989-3.575,5.086C-41.243-1.818-39.91.157-37.667.157Zm0-.82c-1.668,0-2.632-1.661-2.632-4.279,0-2.57.984-4.252,2.632-4.252s2.632,1.668,2.632,4.259C-35.036-2.324-36-.663-37.667-.663ZM-27.532,0h1.066l2.9-4.17h.034L-20.662,0h1.121l-3.411-4.9v-.027l3.459-4.936H-20.56l-2.905,4.19H-23.5l-2.878-4.19H-27.5l3.4,4.895v.034ZM-15.94-4.04h2.625L-11.046,0h1.094l-2.393-4.19a2.734,2.734,0,0,0,2.112-2.789A2.832,2.832,0,0,0-13.39-9.864H-16.87V0h.93Zm0-4.99h2.44a2.021,2.021,0,0,1,2.3,2.078,1.992,1.992,0,0,1-2.27,2.085H-15.94ZM-3.746,0C-1.661,0-.41-1.025-.41-2.707A2.427,2.427,0,0,0-2.728-5.161v-.048a2.23,2.23,0,0,0,1.8-2.222c0-1.456-1.148-2.434-2.844-2.434H-7.314V0ZM-6.385-9.037h2.42c1.313,0,2.1.636,2.1,1.709,0,1.162-.875,1.846-2.372,1.846H-6.385Zm0,8.21V-4.676H-4c1.7,0,2.632.69,2.632,1.921s-.9,1.928-2.509,1.928Z" transform="translate(662.4 1024)" fill="#fefefe"/>
    <path id="Path_5267" data-name="Path 5267" d="M-97.254-7.1h.9a2.163,2.163,0,0,1,2.3-2.105,1.969,1.969,0,0,1,2.1,1.948c0,.868-.349,1.456-1.764,2.933L-97.206-.656V0h6.433V-.834h-5.134V-.861l2.639-2.755c1.757-1.812,2.242-2.618,2.242-3.685a2.826,2.826,0,0,0-3.028-2.721A3,3,0,0,0-97.254-7.1ZM-84.588.157c2.242,0,3.568-1.982,3.568-5.1,0-3.1-1.333-5.079-3.568-5.079s-3.575,1.989-3.575,5.086C-88.163-1.818-86.83.157-84.588.157Zm0-.82c-1.668,0-2.632-1.661-2.632-4.279,0-2.57.984-4.252,2.632-4.252s2.632,1.668,2.632,4.259C-81.956-2.324-82.92-.663-84.588-.663Zm9.754.82c2.242,0,3.568-1.982,3.568-5.1,0-3.1-1.333-5.079-3.568-5.079S-78.41-8.032-78.41-4.936C-78.41-1.818-77.077.157-74.834.157Zm0-.82c-1.668,0-2.632-1.661-2.632-4.279,0-2.57.984-4.252,2.632-4.252S-72.2-7.526-72.2-4.936C-72.2-2.324-73.166-.663-74.834-.663Zm6.629,2.55.861-3.295h-.964l-.656,3.295Zm7.45-1.729c2.242,0,3.568-1.982,3.568-5.1,0-3.1-1.333-5.079-3.568-5.079S-64.33-8.032-64.33-4.936C-64.33-1.818-63,.157-60.755.157Zm0-.82c-1.668,0-2.632-1.661-2.632-4.279,0-2.57.984-4.252,2.632-4.252s2.632,1.668,2.632,4.259C-58.123-2.324-59.087-.663-60.755-.663ZM-51,.157c2.242,0,3.568-1.982,3.568-5.1,0-3.1-1.333-5.079-3.568-5.079s-3.575,1.989-3.575,5.086C-54.577-1.818-53.244.157-51,.157Zm0-.82c-1.668,0-2.632-1.661-2.632-4.279,0-2.57.984-4.252,2.632-4.252s2.632,1.668,2.632,4.259C-48.37-2.324-49.334-.663-51-.663Zm9.754.82c2.242,0,3.568-1.982,3.568-5.1,0-3.1-1.333-5.079-3.568-5.079s-3.575,1.989-3.575,5.086C-44.823-1.818-43.49.157-41.248.157Zm0-.82c-1.668,0-2.632-1.661-2.632-4.279,0-2.57.984-4.252,2.632-4.252s2.632,1.668,2.632,4.259C-38.616-2.324-39.58-.663-41.248-.663Zm6.629,2.55.861-3.295h-.964l-.656,3.295ZM-27.532,0h1.066l2.9-4.17h.034L-20.662,0h1.121l-3.411-4.9v-.027l3.459-4.936H-20.56l-2.905,4.19H-23.5l-2.878-4.19H-27.5l3.4,4.895v.034ZM-15.94-4.04h2.625L-11.046,0h1.094l-2.393-4.19a2.734,2.734,0,0,0,2.112-2.789A2.832,2.832,0,0,0-13.39-9.864H-16.87V0h.93Zm0-4.99h2.44a2.021,2.021,0,0,1,2.3,2.078,1.992,1.992,0,0,1-2.27,2.085H-15.94ZM-3.746,0C-1.661,0-.41-1.025-.41-2.707A2.427,2.427,0,0,0-2.728-5.161v-.048a2.23,2.23,0,0,0,1.8-2.222c0-1.456-1.148-2.434-2.844-2.434H-7.314V0ZM-6.385-9.037h2.42c1.313,0,2.1.636,2.1,1.709,0,1.162-.875,1.846-2.372,1.846H-6.385Zm0,8.21V-4.676H-4c1.7,0,2.632.69,2.632,1.921s-.9,1.928-2.509,1.928Z" transform="translate(444.4 1035)" fill="#36cebf"/>
    <path id="Path_5266" data-name="Path 5266" d="M-132.758-3.463h2.25L-128.563,0h.938l-2.051-3.592a2.344,2.344,0,0,0,1.811-2.391,2.428,2.428,0,0,0-2.707-2.473h-2.982V0h.8Zm0-4.277h2.092a1.733,1.733,0,0,1,1.975,1.781,1.708,1.708,0,0,1-1.945,1.787h-2.121ZM-125.9,0h.914l2.484-3.574h.029L-120.015,0h.961l-2.924-4.2v-.023l2.965-4.23h-.914l-2.49,3.592h-.029l-2.467-3.592h-.961l2.912,4.2v.029Zm12.2,0c1.787,0,2.859-.879,2.859-2.32a2.081,2.081,0,0,0-1.986-2.1v-.041a1.911,1.911,0,0,0,1.547-1.9,2.162,2.162,0,0,0-2.437-2.086h-3.041V0Zm-2.262-7.746h2.074c1.125,0,1.8.545,1.8,1.465,0,1-.75,1.582-2.033,1.582h-1.84Zm0,7.037v-3.3h2.045c1.459,0,2.256.592,2.256,1.646s-.768,1.652-2.15,1.652Zm11.916-2.754h2.25L-99.857,0h.938l-2.051-3.592a2.344,2.344,0,0,0,1.811-2.391,2.428,2.428,0,0,0-2.707-2.473h-2.982V0h.8Zm0-4.277h2.092a1.733,1.733,0,0,1,1.975,1.781,1.708,1.708,0,0,1-1.945,1.787h-2.121ZM-91.039,0h.844l-3.158-8.455h-.8L-97.315,0h.85l.938-2.59h3.551Zm-2.73-7.465h.035l1.518,4.184h-3.07ZM-87.267,0V-8.455h-.8V0ZM-84.9-2.256c.088,1.43,1.324,2.391,3.129,2.391,1.834,0,3.041-.967,3.041-2.467,0-1.172-.7-1.834-2.437-2.227l-.92-.211c-1.254-.281-1.775-.768-1.775-1.535,0-.961.908-1.559,2.051-1.559a1.9,1.9,0,0,1,2.121,1.611h.8A2.626,2.626,0,0,0-81.8-8.59c-1.658,0-2.889.955-2.889,2.32,0,1.166.7,1.887,2.385,2.262l.92.205c1.3.3,1.828.779,1.828,1.576,0,.961-.908,1.635-2.18,1.635-1.324,0-2.268-.65-2.367-1.664ZM-71.262-.727h-4.307V-3.973h4.09v-.715h-4.09V-7.729h4.307v-.727h-5.1V0h5.1ZM-68.7-8.455V0h2.742c2.537,0,4.008-1.553,4.008-4.23s-1.477-4.225-4.008-4.225Zm.8.727H-66c2.08,0,3.24,1.254,3.24,3.5s-1.16,3.5-3.24,3.5h-1.893ZM-58.8-4.9a.54.54,0,0,0,.545-.545A.542.542,0,0,0-58.8-6a.546.546,0,0,0-.551.551A.545.545,0,0,0-58.8-4.9Zm0,4.957a.54.54,0,0,0,.545-.545.542.542,0,0,0-.545-.551.546.546,0,0,0-.551.551A.545.545,0,0,0-58.8.053Zm9.888.082a2.809,2.809,0,0,0,2.971-2.859,2.714,2.714,0,0,0-2.795-2.8,2.447,2.447,0,0,0-2.057.973h-.018l.334-3.187h4.025v-.715h-4.687l-.457,4.74h.721a2.233,2.233,0,0,1,2.01-1.119,2.061,2.061,0,0,1,2.121,2.127A2.065,2.065,0,0,1-48.9-.574,1.954,1.954,0,0,1-50.964-2.2h-.785A2.651,2.651,0,0,0-48.913.135Zm8.184,0c1.922,0,3.059-1.7,3.059-4.371,0-2.654-1.143-4.354-3.059-4.354s-3.064,1.705-3.064,4.359C-43.793-1.559-42.65.135-40.729.135Zm0-.7c-1.43,0-2.256-1.424-2.256-3.668,0-2.2.844-3.645,2.256-3.645s2.256,1.43,2.256,3.65C-38.473-1.992-39.3-.568-40.729-.568Zm8.36.7c1.922,0,3.059-1.7,3.059-4.371,0-2.654-1.143-4.354-3.059-4.354s-3.064,1.705-3.064,4.359C-35.433-1.559-34.29.135-32.368.135Zm0-.7c-1.43,0-2.256-1.424-2.256-3.668,0-2.2.844-3.645,2.256-3.645s2.256,1.43,2.256,3.65C-30.112-1.992-30.939-.568-32.368-.568Zm5.929.621a.54.54,0,0,0,.545-.545.542.542,0,0,0-.545-.551.546.546,0,0,0-.551.551A.545.545,0,0,0-26.44.053ZM-20.3.135c1.922,0,3.059-1.7,3.059-4.371,0-2.654-1.143-4.354-3.059-4.354s-3.064,1.705-3.064,4.359C-23.365-1.559-22.222.135-20.3.135Zm0-.7c-1.43,0-2.256-1.424-2.256-3.668,0-2.2.844-3.645,2.256-3.645s2.256,1.43,2.256,3.65C-18.045-1.992-18.871-.568-20.3-.568Zm8.36.7c1.922,0,3.059-1.7,3.059-4.371,0-2.654-1.143-4.354-3.059-4.354S-15-6.885-15-4.23C-15-1.559-13.862.135-11.94.135Zm0-.7c-1.43,0-2.256-1.424-2.256-3.668,0-2.2.844-3.645,2.256-3.645s2.256,1.43,2.256,3.65C-9.684-1.992-10.511-.568-11.94-.568Zm8.36.7c1.922,0,3.059-1.7,3.059-4.371,0-2.654-1.143-4.354-3.059-4.354S-6.645-6.885-6.645-4.23C-6.645-1.559-5.5.135-3.58.135Zm0-.7c-1.43,0-2.256-1.424-2.256-3.668,0-2.2.844-3.645,2.256-3.645s2.256,1.43,2.256,3.65C-1.324-1.992-2.15-.568-3.58-.568Z" transform="translate(662.2 1081)" fill="#4d5169"/>
    <path id="Rounded_Rectangle_1" data-name="Rounded Rectangle 1" d="M3,0H411a3,3,0,0,1,0,6H3A3,3,0,0,1,3,0Z" transform="translate(246 1047)" fill="#36cebf"/>
    <path id="Rounded_Rectangle_1_copy_5" data-name="Rounded Rectangle 1 copy 5" d="M469,1047H657a3,3,0,1,1,0,6H469Z" fill="#35384a"/>
    <circle id="Ellipse_8" data-name="Ellipse 8" cx="16" cy="16" r="16" transform="translate(452 1034)" fill="rgba(54,206,191,0.13)"/>
    <circle id="Ellipse_9" data-name="Ellipse 9" cx="5.5" cy="5.5" r="5.5" transform="translate(463 1045)" fill="#1bafa0"/>
  </g>
</svg>
