<svg xmlns="http://www.w3.org/2000/svg" width="32" height="32" viewBox="0 0 32 32">
  <g id="social1" transform="translate(9137 -3010)">
    <rect id="Rectangle_356" data-name="Rectangle 356" width="32" height="32" rx="4" transform="translate(-9137 3010)" fill="#2b2c32"/>
    <path id="Icon_awesome-paper-plane" data-name="Icon awesome-paper-plane" d="M11.158.074.293,6.341A.563.563,0,0,0,.345,7.354L2.837,8.4,9.571,2.464a.141.141,0,0,1,.2.195L4.126,9.539v1.887a.562.562,0,0,0,1,.37L6.611,9.984l2.921,1.224a.564.564,0,0,0,.774-.427L11.992.655A.563.563,0,0,0,11.158.074Z" transform="translate(-9127.001 3020.002)" fill="#fff"/>
  </g>
</svg>
