<svg xmlns="http://www.w3.org/2000/svg" width="32" height="32" viewBox="0 0 32 32">
  <g id="social3" transform="translate(9057 -3010)">
    <rect id="Rectangle_358" data-name="Rectangle 358" width="32" height="32" rx="4" transform="translate(-9057 3010)" fill="#2b2c32"/>
    <path id="Icon_awesome-instagram" data-name="Icon awesome-instagram" d="M6,5.16A3.076,3.076,0,1,0,9.072,8.236,3.071,3.071,0,0,0,6,5.16Zm0,5.076a2,2,0,1,1,2-2,2,2,0,0,1-2,2Zm3.919-5.2A.717.717,0,1,1,9.2,4.317.716.716,0,0,1,9.915,5.035Zm2.037.728a3.551,3.551,0,0,0-.969-2.514A3.574,3.574,0,0,0,8.47,2.28c-.991-.056-3.959-.056-4.95,0a3.569,3.569,0,0,0-2.514.966A3.562,3.562,0,0,0,.037,5.76c-.056.991-.056,3.959,0,4.95a3.551,3.551,0,0,0,.969,2.514,3.578,3.578,0,0,0,2.514.969c.991.056,3.959.056,4.95,0a3.551,3.551,0,0,0,2.514-.969,3.574,3.574,0,0,0,.969-2.514c.056-.991.056-3.957,0-4.947Zm-1.28,6.01a2.025,2.025,0,0,1-1.14,1.14A13.222,13.222,0,0,1,6,13.154a13.325,13.325,0,0,1-3.536-.241,2.025,2.025,0,0,1-1.14-1.14,13.222,13.222,0,0,1-.241-3.536A13.325,13.325,0,0,1,1.319,4.7,2.025,2.025,0,0,1,2.46,3.56,13.222,13.222,0,0,1,6,3.319a13.325,13.325,0,0,1,3.536.241,2.025,2.025,0,0,1,1.14,1.14,13.222,13.222,0,0,1,.241,3.536A13.214,13.214,0,0,1,10.673,11.773Z" transform="translate(-9046.995 3017.762)" fill="#fff"/>
  </g>
</svg>
