<svg xmlns="http://www.w3.org/2000/svg" width="32" height="32" viewBox="0 0 32 32">
  <g id="social5" transform="translate(8978 -3010)">
    <rect id="Rectangle_359" data-name="Rectangle 359" width="32" height="32" rx="4" transform="translate(-8978 3010)" fill="#2b2c32"/>
    <path id="Icon_awesome-medium-m" data-name="Icon awesome-medium-m" d="M2.491,6.54a.492.492,0,0,0-.159-.412L1.157,4.711V4.5H4.81l2.824,6.193L10.118,4.5H13.6v.211L12.6,5.675a.293.293,0,0,0-.112.281v7.087a.293.293,0,0,0,.112.281l.982.964V14.5H8.635v-.211L9.654,13.3c.1-.1.1-.13.1-.281V7.293L6.921,14.482H6.538L3.244,7.293v4.818a.656.656,0,0,0,.182.552L4.75,14.268v.211H1v-.208l1.324-1.608a.635.635,0,0,0,.169-.552Z" transform="translate(-8968.998 3016.5)" fill="#fff"/>
  </g>
</svg>
