<svg xmlns="http://www.w3.org/2000/svg" xmlns:xlink="http://www.w3.org/1999/xlink" width="10.01" height="10.011" viewBox="0 0 10.01 10.011">
  <defs>
    <clipPath id="clip-path">
      <path id="Path_4666" data-name="Path 4666" d="M6555.651-776a.348.348,0,0,1,.25.105.354.354,0,0,1,.109.253.352.352,0,0,1-.105.25l-4.4,4.4,4.4,4.4a.353.353,0,0,1,.107.251.35.35,0,0,1-.105.25.354.354,0,0,1-.253.108.354.354,0,0,1-.252-.106l-9.292-9.294a.351.351,0,0,1-.107-.251.35.35,0,0,1,.105-.25.352.352,0,0,1,.253-.109.349.349,0,0,1,.25.105l4.4,4.4,4.4-4.4A.349.349,0,0,1,6555.651-776Zm-6.1,6.1a.356.356,0,0,1,.253.1.355.355,0,0,1,.1.253.356.356,0,0,1-.1.253l-3.194,3.2a.356.356,0,0,1-.253.1.355.355,0,0,1-.253-.105.359.359,0,0,1,0-.505l3.195-3.2A.357.357,0,0,1,6549.553-769.9Z" transform="translate(-6546 776)" fill="none" clip-rule="evenodd"/>
    </clipPath>
    <clipPath id="clip-path-2">
      <path id="Path_4665" data-name="Path 4665" d="M5664-511.5h683.671V-1024H5664Z" transform="translate(-5664 1024)" fill="none"/>
    </clipPath>
  </defs>
  <g id="cancel" clip-path="url(#clip-path)">
    <g id="Group_4842" data-name="Group 4842" transform="translate(-441.433 -124.122)" clip-path="url(#clip-path-2)">
      <path id="Path_4664" data-name="Path 4664" d="M6541-781h15.015v15.016H6541Z" transform="translate(-6102.069 902.619)" fill="#fff"/>
    </g>
  </g>
</svg>
