<svg xmlns="http://www.w3.org/2000/svg" xmlns:xlink="http://www.w3.org/1999/xlink" width="120" height="120" viewBox="0 0 120 120">
  <defs>
    <clipPath id="clip-path">
      <path id="Path_4711" data-name="Path 4711" d="M1557-120a60,60,0,0,0,60-60,60,60,0,0,0-60-60,60,60,0,0,0-60,60A60,60,0,0,0,1557-120Z" transform="translate(-1497 240)" fill="none" clip-rule="evenodd"/>
    </clipPath>
    <clipPath id="clip-path-2">
      <path id="Path_4710" data-name="Path 4710" d="M1484,20H6404V-260H1484Z" transform="translate(-1484 260)" fill="none"/>
    </clipPath>
    <clipPath id="clip-path-3">
      <path id="Path_4715" data-name="Path 4715" d="M1497-120h120V-240H1497Z" transform="translate(-1497 240)" fill="none"/>
    </clipPath>
    <clipPath id="clip-path-4">
      <rect id="Rectangle_302" data-name="Rectangle 302" width="136" height="136" fill="none"/>
    </clipPath>
    <clipPath id="clip-path-5">
      <path id="Path_4714" data-name="Path 4714" d="M1615.383-193.782a59.984,59.984,0,0,1-44.6,72.162,59.985,59.985,0,0,1-72.164-44.6,59.981,59.981,0,0,1,44.6-72.162,59.988,59.988,0,0,1,72.164,44.6" transform="translate(-1497 240)" fill="none" clip-rule="evenodd"/>
    </clipPath>
    <clipPath id="clip-path-7">
      <path id="Path_4718" data-name="Path 4718" d="M1599.477-198.585a50.76,50.76,0,0,1-37.736,61.062,50.76,50.76,0,0,1-61.064-37.739,50.756,50.756,0,0,1,37.74-61.06,50.756,50.756,0,0,1,61.06,37.737" transform="translate(-1499.308 237.692)" fill="none" clip-rule="evenodd"/>
    </clipPath>
    <clipPath id="clip-path-9">
      <path id="Path_4721" data-name="Path 4721" d="M1561.72-176.05a50.761,50.761,0,0,1-61.064-37.737,51.072,51.072,0,0,1-1.352-11.051,51.112,51.112,0,0,0,1.352,12.9A50.761,50.761,0,0,0,1561.72-174.2a50.768,50.768,0,0,0,39.088-50.008,50.775,50.775,0,0,1-39.088,48.162" transform="translate(-1499.291 224.838)" fill="none" clip-rule="evenodd"/>
    </clipPath>
    <clipPath id="clip-path-11">
      <path id="Path_4724" data-name="Path 4724" d="M1538.41-232.63a50.756,50.756,0,0,1,61.06,37.737,51.191,51.191,0,0,1,1.324,9.794,50.859,50.859,0,0,0-1.324-13.486,50.756,50.756,0,0,0-61.06-37.737,50.77,50.77,0,0,0-39.064,51.27,50.766,50.766,0,0,1,39.064-47.577" transform="translate(-1499.31 237.692)" fill="none" clip-rule="evenodd"/>
    </clipPath>
    <clipPath id="clip-path-13">
      <path id="Path_4727" data-name="Path 4727" d="M1512.221-211.643v16.408l20.352-28.61Z" transform="translate(-1512.221 223.844)" fill="none" clip-rule="evenodd"/>
    </clipPath>
    <clipPath id="clip-path-15">
      <path id="Path_4730" data-name="Path 4730" d="M1531.793-200.752l-19.572-32.555v23.675Z" transform="translate(-1512.221 233.307)" fill="none" clip-rule="evenodd"/>
    </clipPath>
    <clipPath id="clip-path-17">
      <path id="Path_4733" data-name="Path 4733" d="M1512.221-226.921v20.2l19.42-11.37Z" transform="translate(-1512.221 226.921)" fill="none" clip-rule="evenodd"/>
    </clipPath>
    <clipPath id="clip-path-19">
      <path id="Path_4736" data-name="Path 4736" d="M1506.9-200.752l19.572-32.555v23.675Z" transform="translate(-1506.899 233.307)" fill="none" clip-rule="evenodd"/>
    </clipPath>
    <clipPath id="clip-path-21">
      <path id="Path_4739" data-name="Path 4739" d="M1526.4-226.921v20.2l-19.472-11.37Z" transform="translate(-1506.924 226.921)" fill="none" clip-rule="evenodd"/>
    </clipPath>
    <clipPath id="clip-path-23">
      <path id="Path_4742" data-name="Path 4742" d="M1527.043-211.643v16.408l-20.352-28.61Z" transform="translate(-1506.691 223.844)" fill="none" clip-rule="evenodd"/>
    </clipPath>
  </defs>
  <g id="currency2" transform="translate(-97 -812)">
    <g id="Group_4898" data-name="Group 4898" transform="translate(97 812)" clip-path="url(#clip-path)">
      <g id="Group_4897" data-name="Group 4897" transform="translate(-52 -80)" clip-path="url(#clip-path-2)">
        <path id="Path_4709" data-name="Path 4709" d="M1492-245h160V-85H1492Z" transform="translate(-1460 305)" fill="#1e1938"/>
      </g>
    </g>
    <g id="Group_4903" data-name="Group 4903" transform="translate(97 812)" clip-path="url(#clip-path-3)">
      <g id="Group_4902" data-name="Group 4902" transform="translate(-8 -8.001)" style="isolation: isolate">
        <g id="Group_4901" data-name="Group 4901" clip-path="url(#clip-path-4)">
          <g id="Group_4900" data-name="Group 4900" transform="translate(8.001 8.001)" clip-path="url(#clip-path-5)">
            <g id="Group_4899" data-name="Group 4899" transform="translate(-0.001 -0.001)" clip-path="url(#clip-path-3)">
              <path id="Path_4712" data-name="Path 4712" d="M1492-245h160V-85H1492Z" transform="translate(-1512 225.001)" fill="#6c75b6"/>
            </g>
          </g>
        </g>
      </g>
    </g>
    <g id="Group_4905" data-name="Group 4905" transform="translate(106.23 821.232)" clip-path="url(#clip-path-7)">
      <g id="Group_4904" data-name="Group 4904" transform="translate(-61.231 -89.232)" clip-path="url(#clip-path-2)">
        <path id="Path_4716" data-name="Path 4716" d="M1494.308-242.692h141.536v141.537H1494.308Z" transform="translate(-1453.076 311.924)" fill="rgba(0,0,0,0)"/>
      </g>
    </g>
    <g id="Group_4907" data-name="Group 4907" transform="translate(106.162 872.646)" clip-path="url(#clip-path-9)">
      <g id="Group_4906" data-name="Group 4906" transform="translate(-61.163 -140.647)" clip-path="url(#clip-path-2)">
        <path id="Path_4719" data-name="Path 4719" d="M1494.291-229.838h141.52v92h-141.52Z" transform="translate(-1453.127 350.485)" fill="rgba(255,255,255,0.2)"/>
      </g>
    </g>
    <g id="Group_4909" data-name="Group 4909" transform="translate(106.24 821.23)" clip-path="url(#clip-path-11)">
      <g id="Group_4908" data-name="Group 4908" transform="translate(-61.24 -89.231)" clip-path="url(#clip-path-2)">
        <path id="Path_4722" data-name="Path 4722" d="M1494.31-242.692h141.516v92.639H1494.31Z" transform="translate(-1453.07 311.923)" fill="rgba(56,56,56,0.2)"/>
      </g>
    </g>
    <g id="Group_4911" data-name="Group 4911" transform="translate(157.883 876.621)" clip-path="url(#clip-path-13)">
      <g id="Group_4910" data-name="Group 4910" transform="translate(-112.884 -144.622)" clip-path="url(#clip-path-2)">
        <path id="Path_4725" data-name="Path 4725" d="M1507.221-228.844h60.352v68.61h-60.352Z" transform="translate(-1414.337 353.466)" fill="#fff"/>
      </g>
    </g>
    <g id="Group_4913" data-name="Group 4913" transform="translate(157.883 838.77)" clip-path="url(#clip-path-15)">
      <g id="Group_4912" data-name="Group 4912" transform="translate(-112.884 -106.77)" clip-path="url(#clip-path-2)">
        <path id="Path_4728" data-name="Path 4728" d="M1507.221-238.307h59.572v72.555h-59.572Z" transform="translate(-1414.337 325.078)" fill="#fff"/>
      </g>
    </g>
    <g id="Group_4915" data-name="Group 4915" transform="translate(157.883 864.316)" clip-path="url(#clip-path-17)">
      <g id="Group_4914" data-name="Group 4914" transform="translate(-112.884 -132.316)" clip-path="url(#clip-path-2)">
        <path id="Path_4731" data-name="Path 4731" d="M1507.221-231.921h59.42v60.2h-59.42Z" transform="translate(-1414.337 344.237)" fill="#fff"/>
      </g>
    </g>
    <g id="Group_4917" data-name="Group 4917" transform="translate(136.596 838.77)" clip-path="url(#clip-path-19)">
      <g id="Group_4916" data-name="Group 4916" transform="translate(-91.596 -106.77)" clip-path="url(#clip-path-2)">
        <path id="Path_4734" data-name="Path 4734" d="M1501.9-238.307h59.572v72.555H1501.9Z" transform="translate(-1430.303 325.078)" fill="#fff"/>
      </g>
    </g>
    <g id="Group_4919" data-name="Group 4919" transform="translate(136.695 864.316)" clip-path="url(#clip-path-21)">
      <g id="Group_4918" data-name="Group 4918" transform="translate(-91.696 -132.316)" clip-path="url(#clip-path-2)">
        <path id="Path_4737" data-name="Path 4737" d="M1501.924-231.921H1561.4v60.2h-59.472Z" transform="translate(-1430.228 344.237)" fill="#fff"/>
      </g>
    </g>
    <g id="Group_4921" data-name="Group 4921" transform="translate(135.764 876.621)" clip-path="url(#clip-path-23)">
      <g id="Group_4920" data-name="Group 4920" transform="translate(-90.764 -144.622)" clip-path="url(#clip-path-2)">
        <path id="Path_4740" data-name="Path 4740" d="M1501.691-228.844h60.352v68.61h-60.352Z" transform="translate(-1430.927 353.466)" fill="#fff"/>
      </g>
    </g>
  </g>
</svg>
