<svg xmlns="http://www.w3.org/2000/svg" xmlns:xlink="http://www.w3.org/1999/xlink" width="30" height="30" viewBox="0 0 30 30">
  <defs>
    <clipPath id="clip-path">
      <path id="Path_5285" data-name="Path 5285" d="M1512-210a15,15,0,0,0,15-15,15,15,0,0,0-15-15,15,15,0,0,0-15,15A15,15,0,0,0,1512-210Z" transform="translate(-1497 240)" fill="none" clip-rule="evenodd"/>
    </clipPath>
    <clipPath id="clip-path-2">
      <path id="Path_5284" data-name="Path 5284" d="M1484-190H2714v-70H1484Z" transform="translate(-1484 260)" fill="none"/>
    </clipPath>
    <clipPath id="clip-path-3">
      <path id="Path_5289" data-name="Path 5289" d="M1497-210h30v-30h-30Z" transform="translate(-1497 240)" fill="none"/>
    </clipPath>
    <clipPath id="clip-path-4">
      <rect id="Rectangle_353" data-name="Rectangle 353" width="34" height="34" transform="translate(0 0.365)" fill="none"/>
    </clipPath>
    <clipPath id="clip-path-5">
      <path id="Path_5288" data-name="Path 5288" d="M1526.6-228.445a15,15,0,0,1-11.15,18.041,15,15,0,0,1-18.041-11.15,15,15,0,0,1,11.15-18.041,15,15,0,0,1,18.041,11.15" transform="translate(-1497 240)" fill="none" clip-rule="evenodd"/>
    </clipPath>
    <clipPath id="clip-path-7">
      <path id="Path_5296" data-name="Path 5296" d="M1524.35-227.915a12.69,12.69,0,0,1-9.434,15.265,12.69,12.69,0,0,1-15.266-9.435,12.689,12.689,0,0,1,9.435-15.265,12.689,12.689,0,0,1,15.265,9.434" transform="translate(-1499.308 237.692)" fill="none" clip-rule="evenodd"/>
    </clipPath>
    <clipPath id="clip-path-9">
      <path id="Path_5299" data-name="Path 5299" d="M1514.9-212.641a12.69,12.69,0,0,1-15.266-9.434,12.768,12.768,0,0,1-.338-2.763,12.778,12.778,0,0,0,.338,3.224,12.69,12.69,0,0,0,15.266,9.434,12.692,12.692,0,0,0,9.772-12.5,12.694,12.694,0,0,1-9.772,12.041" transform="translate(-1499.291 224.838)" fill="none" clip-rule="evenodd"/>
    </clipPath>
    <clipPath id="clip-path-11">
      <path id="Path_5302" data-name="Path 5302" d="M1509.085-236.427a12.689,12.689,0,0,1,15.265,9.434,12.8,12.8,0,0,1,.331,2.448,12.715,12.715,0,0,0-.331-3.372,12.689,12.689,0,0,0-15.265-9.434,12.693,12.693,0,0,0-9.766,12.817,12.692,12.692,0,0,1,9.766-11.894" transform="translate(-1499.31 237.692)" fill="none" clip-rule="evenodd"/>
    </clipPath>
    <clipPath id="clip-path-13">
      <path id="Path_5326" data-name="Path 5326" d="M1512.221-220.794v4.1l5.088-7.152Z" transform="translate(-1512.221 223.844)" fill="none" clip-rule="evenodd"/>
    </clipPath>
    <clipPath id="clip-path-15">
      <path id="Path_5329" data-name="Path 5329" d="M1517.114-225.169l-4.893-8.139v5.919Z" transform="translate(-1512.221 233.307)" fill="none" clip-rule="evenodd"/>
    </clipPath>
    <clipPath id="clip-path-17">
      <path id="Path_5332" data-name="Path 5332" d="M1512.221-226.921v5.049l4.855-2.843Z" transform="translate(-1512.221 226.921)" fill="none" clip-rule="evenodd"/>
    </clipPath>
    <clipPath id="clip-path-19">
      <path id="Path_5314" data-name="Path 5314" d="M1506.9-225.169l4.893-8.139v5.919Z" transform="translate(-1506.899 233.307)" fill="none" clip-rule="evenodd"/>
    </clipPath>
    <clipPath id="clip-path-21">
      <path id="Path_5317" data-name="Path 5317" d="M1511.792-226.921v5.049l-4.868-2.843Z" transform="translate(-1506.924 226.921)" fill="none" clip-rule="evenodd"/>
    </clipPath>
    <clipPath id="clip-path-23">
      <path id="Path_5320" data-name="Path 5320" d="M1511.779-220.794v4.1l-5.088-7.152Z" transform="translate(-1506.691 223.844)" fill="none" clip-rule="evenodd"/>
    </clipPath>
  </defs>
  <g id="currency2" transform="translate(6692.805 -1719.101)">
    <g id="Group_5706" data-name="Group 5706" transform="translate(-6692.805 1719.101)" clip-path="url(#clip-path)">
      <g id="Group_5705" data-name="Group 5705" transform="translate(-13 -20)" clip-path="url(#clip-path-2)">
        <path id="Path_5283" data-name="Path 5283" d="M1492-245h40v40h-40Z" transform="translate(-1484 260)" fill="#1e1938"/>
      </g>
    </g>
    <g id="Group_5711" data-name="Group 5711" transform="translate(-6692.805 1719.101)" clip-path="url(#clip-path-3)">
      <g id="Group_5710" data-name="Group 5710" transform="translate(-2 -2)" style="isolation: isolate">
        <g id="Group_5709" data-name="Group 5709" clip-path="url(#clip-path-4)">
          <g id="Group_5708" data-name="Group 5708" transform="translate(2 2)" clip-path="url(#clip-path-5)">
            <g id="Group_5707" data-name="Group 5707" transform="translate(0 0)" clip-path="url(#clip-path-3)">
              <path id="Path_5286" data-name="Path 5286" d="M1492-245h40v40h-40Z" transform="translate(-1497 240)" fill="#6c75b6"/>
            </g>
          </g>
        </g>
      </g>
    </g>
    <g id="Group_5718" data-name="Group 5718" transform="translate(-6690.497 1721.409)" clip-path="url(#clip-path-7)">
      <g id="Group_5717" data-name="Group 5717" transform="translate(-15.308 -22.308)" clip-path="url(#clip-path-2)">
        <path id="Path_5294" data-name="Path 5294" d="M1494.308-242.692h35.384v35.384h-35.384Z" transform="translate(-1484 260)" fill="rgba(0,0,0,0)"/>
      </g>
    </g>
    <g id="Group_5720" data-name="Group 5720" transform="translate(-6690.514 1734.263)" clip-path="url(#clip-path-9)">
      <g id="Group_5719" data-name="Group 5719" transform="translate(-15.291 -35.162)" clip-path="url(#clip-path-2)">
        <path id="Path_5297" data-name="Path 5297" d="M1494.291-229.838h35.38v23h-35.38Z" transform="translate(-1484 260)" fill="rgba(255,255,255,0.2)"/>
      </g>
    </g>
    <g id="Group_5722" data-name="Group 5722" transform="translate(-6690.495 1721.409)" clip-path="url(#clip-path-11)">
      <g id="Group_5721" data-name="Group 5721" transform="translate(-15.31 -22.308)" clip-path="url(#clip-path-2)">
        <path id="Path_5300" data-name="Path 5300" d="M1494.31-242.692h35.379v23.16H1494.31Z" transform="translate(-1484 260)" fill="rgba(56,56,56,0.2)"/>
      </g>
    </g>
    <g id="Group_5738" data-name="Group 5738" transform="translate(-6677.584 1735.256)" clip-path="url(#clip-path-13)">
      <g id="Group_5737" data-name="Group 5737" transform="translate(-28.221 -36.156)" clip-path="url(#clip-path-2)">
        <path id="Path_5324" data-name="Path 5324" d="M1507.221-228.844h15.088v17.152h-15.088Z" transform="translate(-1484 260)" fill="#fff"/>
      </g>
    </g>
    <g id="Group_5740" data-name="Group 5740" transform="translate(-6677.584 1725.793)" clip-path="url(#clip-path-15)">
      <g id="Group_5739" data-name="Group 5739" transform="translate(-28.221 -26.693)" clip-path="url(#clip-path-2)">
        <path id="Path_5327" data-name="Path 5327" d="M1507.221-238.307h14.893v18.139h-14.893Z" transform="translate(-1484 260)" fill="#fff"/>
      </g>
    </g>
    <g id="Group_5742" data-name="Group 5742" transform="translate(-6677.584 1732.18)" clip-path="url(#clip-path-17)">
      <g id="Group_5741" data-name="Group 5741" transform="translate(-28.221 -33.079)" clip-path="url(#clip-path-2)">
        <path id="Path_5330" data-name="Path 5330" d="M1507.221-231.921h14.855v15.049h-14.855Z" transform="translate(-1484 260)" fill="#fff"/>
      </g>
    </g>
    <g id="Group_5730" data-name="Group 5730" transform="translate(-6682.906 1725.793)" clip-path="url(#clip-path-19)">
      <g id="Group_5729" data-name="Group 5729" transform="translate(-22.899 -26.693)" clip-path="url(#clip-path-2)">
        <path id="Path_5312" data-name="Path 5312" d="M1501.9-238.307h14.893v18.139H1501.9Z" transform="translate(-1484 260)" fill="#fff"/>
      </g>
    </g>
    <g id="Group_5732" data-name="Group 5732" transform="translate(-6682.881 1732.18)" clip-path="url(#clip-path-21)">
      <g id="Group_5731" data-name="Group 5731" transform="translate(-22.924 -33.079)" clip-path="url(#clip-path-2)">
        <path id="Path_5315" data-name="Path 5315" d="M1501.924-231.921h14.868v15.049h-14.868Z" transform="translate(-1484 260)" fill="#fff"/>
      </g>
    </g>
    <g id="Group_5734" data-name="Group 5734" transform="translate(-6683.114 1735.256)" clip-path="url(#clip-path-23)">
      <g id="Group_5733" data-name="Group 5733" transform="translate(-22.691 -36.156)" clip-path="url(#clip-path-2)">
        <path id="Path_5318" data-name="Path 5318" d="M1501.691-228.844h15.088v17.152h-15.088Z" transform="translate(-1484 260)" fill="#fff"/>
      </g>
    </g>
  </g>
</svg>
