<svg xmlns="http://www.w3.org/2000/svg" xmlns:xlink="http://www.w3.org/1999/xlink" width="30" height="30" viewBox="0 0 30 30">
  <defs>
    <clipPath id="clip-path">
      <path id="Path_5293" data-name="Path 5293" d="M1497-280h30v-30h-30Z" transform="translate(-1497 310)" fill="none"/>
    </clipPath>
    <clipPath id="clip-path-2">
      <rect id="Rectangle_354" data-name="Rectangle 354" width="34" height="34" fill="none"/>
    </clipPath>
    <clipPath id="clip-path-3">
      <path id="Path_5292" data-name="Path 5292" d="M1526.6-298.446a15,15,0,0,1-11.15,18.041,15,15,0,0,1-18.041-11.15,15,15,0,0,1,11.149-18.041,15,15,0,0,1,18.042,11.15" transform="translate(-1497 310)" fill="none" clip-rule="evenodd"/>
    </clipPath>
    <clipPath id="clip-path-5">
      <path id="Path_5305" data-name="Path 5305" d="M1524.35-297.915a12.69,12.69,0,0,1-9.434,15.265,12.689,12.689,0,0,1-15.266-9.434,12.689,12.689,0,0,1,9.435-15.265,12.689,12.689,0,0,1,15.265,9.434" transform="translate(-1499.308 307.692)" fill="none" clip-rule="evenodd"/>
    </clipPath>
    <clipPath id="clip-path-6">
      <path id="Path_5304" data-name="Path 5304" d="M1484-260H2714v-70H1484Z" transform="translate(-1484 330)" fill="none"/>
    </clipPath>
    <clipPath id="clip-path-7">
      <path id="Path_5308" data-name="Path 5308" d="M1514.9-282.641a12.688,12.688,0,0,1-15.265-9.434,12.7,12.7,0,0,1-.339-2.763,12.732,12.732,0,0,0,.339,3.225,12.688,12.688,0,0,0,15.265,9.434,12.692,12.692,0,0,0,9.772-12.5,12.694,12.694,0,0,1-9.772,12.041" transform="translate(-1499.291 294.839)" fill="none" clip-rule="evenodd"/>
    </clipPath>
    <clipPath id="clip-path-9">
      <path id="Path_5311" data-name="Path 5311" d="M1509.085-306.427a12.69,12.69,0,0,1,15.265,9.434,12.8,12.8,0,0,1,.331,2.448,12.678,12.678,0,0,0-.331-3.372,12.69,12.69,0,0,0-15.265-9.434,12.693,12.693,0,0,0-9.766,12.817,12.693,12.693,0,0,1,9.766-11.894" transform="translate(-1499.31 307.692)" fill="none" clip-rule="evenodd"/>
    </clipPath>
    <clipPath id="clip-path-11">
      <path id="Path_5323" data-name="Path 5323" d="M1514.6-292.023a6.248,6.248,0,0,1-2.41.887c-.234.048-.47.085-.729.139-.21-1.074-.415-2.123-.626-3.2a7.761,7.761,0,0,1,3.277-.3,1.311,1.311,0,0,1,1.1,1.069,1.317,1.317,0,0,1-.609,1.4m-4.636-6.537a6.194,6.194,0,0,1,2.647-.242,1.205,1.205,0,0,1,1.027,1.045,1.267,1.267,0,0,1-.7,1.352,6.972,6.972,0,0,1-2.419.722c-.182-.938-.364-1.876-.56-2.876m7.93,3.847a2.136,2.136,0,0,0-1.392-1.38,8.926,8.926,0,0,0-.995-.217,1.051,1.051,0,0,1,.073-.079,2.546,2.546,0,0,0-.545-4.036,4.142,4.142,0,0,0-1.628-.355c-.4-.007-.794.012-1.2.032-.143-.689-.328-1.64-.487-2.4l-1.441.3c.144.754.336,1.677.466,2.357l-1.158.241c-.141-.677-.321-1.6-.477-2.354l-1.428.3c.146.766.344,1.714.472,2.393-.987.193-1.935.391-2.923.583.111.53.2,1.025.308,1.542.21-.043.4-.082.57-.105.184-.039.368-.077.543-.1a.753.753,0,0,1,.933.654c.4,2.061.81,4.134,1.225,6.193.095.455-.066.669-.51.761l-.96.2c.022.6.039,1.174.061,1.773l2.925-.571c.154.739.337,1.677.5,2.453l1.441-.3c-.15-.778-.339-1.689-.478-2.418l1.165-.2c.154.738.328,1.64.485,2.391l1.44-.3c-.149-.779-.339-1.689-.475-2.406.047-.023.083-.03.118-.05.667-.254,1.356-.462,1.987-.761a2.77,2.77,0,0,0,1.6-1.99,4.239,4.239,0,0,0-.214-2.139" transform="translate(-1505.232 303.151)" fill="none" clip-rule="evenodd"/>
    </clipPath>
  </defs>
  <g id="currency1" transform="translate(-56 -359)">
    <g id="Group_5716" data-name="Group 5716" transform="translate(56 359)" clip-path="url(#clip-path)">
      <g id="Group_5715" data-name="Group 5715" transform="translate(-2 -2)" style="isolation: isolate">
        <g id="Group_5714" data-name="Group 5714" clip-path="url(#clip-path-2)">
          <g id="Group_5713" data-name="Group 5713" transform="translate(2 2)" clip-path="url(#clip-path-3)">
            <g id="Group_5712" data-name="Group 5712" transform="translate(0 0)" clip-path="url(#clip-path)">
              <path id="Path_5290" data-name="Path 5290" d="M1492-315h40v40h-40Z" transform="translate(-1497 310)" fill="#f89f36"/>
            </g>
          </g>
        </g>
      </g>
    </g>
    <g id="Group_5724" data-name="Group 5724" transform="translate(58.308 361.308)" clip-path="url(#clip-path-5)">
      <g id="Group_5723" data-name="Group 5723" transform="translate(-15.308 -22.308)" clip-path="url(#clip-path-6)">
        <path id="Path_5303" data-name="Path 5303" d="M1494.307-312.692h35.385v35.384h-35.385Z" transform="translate(-1484 330)" fill="rgba(56,56,56,0.1)"/>
      </g>
    </g>
    <g id="Group_5726" data-name="Group 5726" transform="translate(58.291 374.161)" clip-path="url(#clip-path-7)">
      <g id="Group_5725" data-name="Group 5725" transform="translate(-15.291 -35.161)" clip-path="url(#clip-path-6)">
        <path id="Path_5306" data-name="Path 5306" d="M1494.291-299.839h35.38v23h-35.38Z" transform="translate(-1484 330)" fill="rgba(255,255,255,0.2)"/>
      </g>
    </g>
    <g id="Group_5728" data-name="Group 5728" transform="translate(58.311 361.308)" clip-path="url(#clip-path-9)">
      <g id="Group_5727" data-name="Group 5727" transform="translate(-15.31 -22.308)" clip-path="url(#clip-path-6)">
        <path id="Path_5309" data-name="Path 5309" d="M1494.31-312.692h35.379v23.16H1494.31Z" transform="translate(-1484 330)" fill="rgba(56,56,56,0.2)"/>
      </g>
    </g>
    <g id="Group_5736" data-name="Group 5736" transform="translate(64.232 365.85)" clip-path="url(#clip-path-11)">
      <g id="Group_5735" data-name="Group 5735" transform="translate(-21.232 -26.849)" clip-path="url(#clip-path-6)">
        <path id="Path_5321" data-name="Path 5321" d="M1500.232-308.151h22.932v26.615h-22.932Z" transform="translate(-1484 330)" fill="#fff"/>
      </g>
    </g>
  </g>
</svg>
