<svg id="Group_5803" data-name="Group 5803" xmlns="http://www.w3.org/2000/svg" xmlns:xlink="http://www.w3.org/1999/xlink" width="90" height="90" viewBox="0 0 90 90">
  <defs>
    <clipPath id="clip-path">
      <path id="Path_5308" data-name="Path 5308" d="M1497-220h90v-90h-90Z" transform="translate(-1497 310)" fill="#fff"/>
    </clipPath>
    <clipPath id="clip-path-2">
      <rect id="Rectangle_361" data-name="Rectangle 361" width="102.359" height="101.506" transform="translate(0)" fill="#fff"/>
    </clipPath>
    <clipPath id="clip-path-3">
      <path id="Path_5307" data-name="Path 5307" d="M1585.788-275.337a45,45,0,0,1-33.45,54.123,44.99,44.99,0,0,1-54.123-33.45,44.99,44.99,0,0,1,33.447-54.123,44.993,44.993,0,0,1,54.126,33.45" transform="translate(-1497.001 310)" fill="#fff" clip-rule="evenodd"/>
    </clipPath>
    <clipPath id="clip-path-5">
      <path id="Path_5311" data-name="Path 5311" d="M1574.435-278.362a38.069,38.069,0,0,1-28.3,45.8,38.068,38.068,0,0,1-45.8-28.3,38.067,38.067,0,0,1,28.305-45.8,38.067,38.067,0,0,1,45.795,28.3" transform="translate(-1499.308 307.692)" fill="rgba(255,255,255,0.1)" clip-rule="evenodd"/>
    </clipPath>
    <clipPath id="clip-path-6">
      <path id="Path_5310" data-name="Path 5310" d="M1484-120H5174V-330H1484Z" transform="translate(-1484 330)" fill="rgba(255,255,255,0.1)"/>
    </clipPath>
    <clipPath id="clip-path-7">
      <path id="Path_5314" data-name="Path 5314" d="M1546.113-258.246a38.065,38.065,0,0,1-45.795-28.3,38.1,38.1,0,0,1-1.017-8.29,38.2,38.2,0,0,0,1.017,9.674,38.065,38.065,0,0,0,45.795,28.3,38.077,38.077,0,0,0,29.316-37.508,38.082,38.082,0,0,1-29.316,36.123" transform="translate(-1499.291 294.839)" fill="none" clip-rule="evenodd"/>
    </clipPath>
    <clipPath id="clip-path-8">
      <path id="Path_5313" data-name="Path 5313" d="M1484-120H5174V-330H1484Z" transform="translate(-1484 330)" fill="none"/>
    </clipPath>
    <clipPath id="clip-path-9">
      <path id="Path_5317" data-name="Path 5317" d="M1528.635-303.9a38.069,38.069,0,0,1,45.8,28.3,38.424,38.424,0,0,1,.993,7.345,38.038,38.038,0,0,0-.993-10.115,38.069,38.069,0,0,0-45.8-28.3,38.077,38.077,0,0,0-29.3,38.452,38.079,38.079,0,0,1,29.3-35.683" transform="translate(-1499.31 307.692)" fill="none" clip-rule="evenodd"/>
    </clipPath>
    <clipPath id="clip-path-11">
      <path id="Path_5320" data-name="Path 5320" d="M28.11,33.383c-2.175,1.57-4.689,2.093-7.23,2.661-.7.145-1.41.255-2.187.417-.63-3.222-1.245-6.369-1.878-9.59,3.285-.684,6.483-1.619,9.831-.892a4.035,4.035,0,0,1,1.464,7.4M14.2,13.773c2.7-.561,5.274-1.328,7.941-.727a3.616,3.616,0,0,1,3.081,3.135,3.8,3.8,0,0,1-2.085,4.056A20.916,20.916,0,0,1,15.881,22.4c-.546-2.815-1.092-5.628-1.68-8.629m23.79,11.542a6.409,6.409,0,0,0-4.176-4.14,26.8,26.8,0,0,0-2.985-.651,3.15,3.15,0,0,1,.219-.238c4.125-3.324,2.235-10.37-1.635-12.107a12.425,12.425,0,0,0-4.884-1.065c-1.2-.019-2.382.035-3.6.1C20.5,5.141,19.943,2.289,19.467,0L15.144.9c.432,2.261,1.008,5.032,1.4,7.071-1.221.252-2.328.483-3.474.722-.423-2.031-.963-4.809-1.431-7.063l-4.284.893c.438,2.3,1.032,5.141,1.416,7.179C5.808,10.28,2.963,10.872,0,11.449c.332,1.589.6,3.074.924,4.624.63-.13,1.185-.245,1.71-.316.552-.116,1.1-.231,1.629-.3a2.257,2.257,0,0,1,2.8,1.962C8.271,23.6,9.492,29.822,10.736,36c.285,1.365-.2,2.006-1.53,2.282l-2.88.6c.066,1.8.117,3.521.183,5.318,2.925-.572,5.814-1.134,8.775-1.713.462,2.217,1.011,5.032,1.494,7.359l4.323-.9c-.45-2.335-1.017-5.068-1.434-7.255,1.227-.216,2.343-.41,3.5-.61.462,2.216.984,4.919,1.455,7.172l4.32-.9c-.447-2.336-1.017-5.068-1.425-7.218.141-.068.249-.09.354-.151,2-.763,4.068-1.386,5.961-2.282a8.308,8.308,0,0,0,4.806-5.971,12.717,12.717,0,0,0-.642-6.418" transform="translate(0 0)" fill="#f97d16" clip-rule="evenodd"/>
    </clipPath>
    <clipPath id="clip-path-12">
      <path id="Path_5319" data-name="Path 5319" d="M0,210H3690V0H0Z" transform="translate(0 0)" fill="#f97d16"/>
    </clipPath>
  </defs>
  <g id="Group_5741" data-name="Group 5741" transform="translate(0 0)" clip-path="url(#clip-path)">
    <g id="Group_5740" data-name="Group 5740" transform="translate(-6.792 -4.265)" style="isolation: isolate">
      <g id="Group_5739" data-name="Group 5739" transform="translate(0 0)" clip-path="url(#clip-path-2)">
        <g id="Group_5738" data-name="Group 5738" transform="translate(6.793 4.264)" clip-path="url(#clip-path-3)">
          <g id="Group_5737" data-name="Group 5737" transform="translate(-0.001 0)" clip-path="url(#clip-path)">
            <path id="Path_5305" data-name="Path 5305" d="M1492-315h120v120H1492Z" transform="translate(-1507.001 300)" fill="#fff"/>
          </g>
        </g>
      </g>
    </g>
  </g>
  <g id="Group_5743" data-name="Group 5743" transform="translate(6.923 6.923)" clip-path="url(#clip-path-5)">
    <g id="Group_5742" data-name="Group 5742" transform="translate(-45.923 -66.923)" clip-path="url(#clip-path-6)">
      <path id="Path_5309" data-name="Path 5309" d="M1494.307-312.692h106.155v106.153H1494.307Z" transform="translate(-1463.386 364.616)" fill="rgba(255,255,255,0.1)"/>
    </g>
  </g>
  <g id="Group_5745" data-name="Group 5745" transform="translate(6.875 45.483)" clip-path="url(#clip-path-7)">
    <g id="Group_5744" data-name="Group 5744" transform="translate(-45.872 -105.484)" clip-path="url(#clip-path-8)">
      <path id="Path_5312" data-name="Path 5312" d="M1494.291-299.839h106.14v69h-106.14Z" transform="translate(-1463.418 390.323)" fill="rgba(255,255,255,0.2)"/>
    </g>
  </g>
  <g id="Group_5747" data-name="Group 5747" transform="translate(6.932 6.923)" clip-path="url(#clip-path-9)">
    <g id="Group_5746" data-name="Group 5746" transform="translate(-45.93 -66.923)" clip-path="url(#clip-path-8)">
      <path id="Path_5315" data-name="Path 5315" d="M1494.31-312.692h106.137v69.479H1494.31Z" transform="translate(-1463.38 364.616)" fill="rgba(56,56,56,0.2)"/>
    </g>
  </g>
  <g id="Group_5749" data-name="Group 5749" transform="matrix(0.978, 0.208, -0.208, 0.978, 30.302, 17.06)" clip-path="url(#clip-path-11)">
    <g id="Group_5748" data-name="Group 5748" transform="translate(-63.696 -80.549)" clip-path="url(#clip-path-12)">
      <path id="Path_5318" data-name="Path 5318" d="M0,0H68.8V79.846H0Z" transform="translate(48.696 65.548)" fill="#f97d16"/>
    </g>
  </g>
</svg>
