<svg xmlns="http://www.w3.org/2000/svg" xmlns:xlink="http://www.w3.org/1999/xlink" width="70.071" height="29" viewBox="0 0 70.071 29">
  <defs>
    <linearGradient id="linear-gradient" x1="5.913" y1="1.058" x2="5.38" y2="1.674" gradientUnits="objectBoundingBox">
      <stop offset="0" stop-color="#00dffe"/>
      <stop offset="0.525" stop-color="#00f5ff"/>
      <stop offset="1" stop-color="#23fccf"/>
    </linearGradient>
    <radialGradient id="radial-gradient" cx="0.896" cy="0.055" r="0.985" gradientTransform="translate(-0.001) scale(1.01 1)" gradientUnits="objectBoundingBox">
      <stop offset="0" stop-color="#060606" stop-opacity="0.475"/>
      <stop offset="0.11" stop-color="#030509" stop-opacity="0.255"/>
      <stop offset="0.451" stop-color="#00040c" stop-opacity="0"/>
      <stop offset="0.659" stop-color="#144a4c" stop-opacity="0"/>
      <stop offset="1" stop-color="#2afdc5" stop-opacity="0"/>
    </radialGradient>
  </defs>
  <g id="dashboard-nav-logo" transform="translate(-422.807 -465.925)">
    <g id="Group_5392" data-name="Group 5392" transform="translate(422.807 465.925)">
      <path id="Path_4983" data-name="Path 4983" d="M437.287,465.925a1.2,1.2,0,0,0-1.2,1.2v5.52a9.427,9.427,0,0,0-2.012-.958,9.154,9.154,0,0,0-2.6-.41,8.666,8.666,0,0,0,0,17.332,8.533,8.533,0,0,0,8.493-8.666V467.129a1.2,1.2,0,0,0-1.2-1.2Zm-5.78,9.222a4.592,4.592,0,0,1,4.559,4.8,4.987,4.987,0,0,1-1.127,3.219,4.4,4.4,0,0,1-3.433,1.58,4.8,4.8,0,1,1,0-9.6Z" transform="translate(-422.807 -465.925)" fill-rule="evenodd" fill="url(#linear-gradient)"/>
      <path id="Path_4984" data-name="Path 4984" d="M431.473,668.8a8.666,8.666,0,1,0,0,17.332,8.533,8.533,0,0,0,8.493-8.666h-3.882v-7.3a4.493,4.493,0,0,0-.4-.244A8.694,8.694,0,0,0,431.473,668.8Zm.034,3.866a4.592,4.592,0,0,1,4.559,4.8,4.987,4.987,0,0,1-1.127,3.219,4.4,4.4,0,0,1-3.433,1.58,4.8,4.8,0,1,1,0-9.6Z" transform="translate(-422.807 -663.447)" fill-rule="evenodd" fill="url(#radial-gradient)"/>
    </g>
    <g id="Group_5394" data-name="Group 5394" transform="translate(447.497 467.622)">
      <path id="Path_4985" data-name="Path 4985" d="M1358.11,605.911h7.306a10.268,10.268,0,0,1,4.629,1,7.482,7.482,0,0,1,3.125,2.814,8.575,8.575,0,0,1,0,8.455,7.481,7.481,0,0,1-3.125,2.814,10.267,10.267,0,0,1-4.629,1h-7.306Zm7.122,13.027a5.4,5.4,0,0,0,3.848-1.344,5.335,5.335,0,0,0,0-7.283,5.4,5.4,0,0,0-3.848-1.344h-3.4v9.971Z" transform="translate(-1358.11 -603.912)" fill="#fff" fill-rule="evenodd"/>
      <path id="Path_4986" data-name="Path 4986" d="M2020.043,740.126v12.361h-3.423v-1.424a4.726,4.726,0,0,1-3.86,1.608,6.421,6.421,0,0,1-3.159-.781,5.592,5.592,0,0,1-2.217-2.229,7.4,7.4,0,0,1,0-6.709,5.593,5.593,0,0,1,2.217-2.229,6.419,6.419,0,0,1,3.159-.781,4.7,4.7,0,0,1,3.7,1.493v-1.31Zm-6.663,9.6a3,3,0,0,0,2.252-.93,3.917,3.917,0,0,0,0-4.986,3.217,3.217,0,0,0-4.526,0,3.916,3.916,0,0,0,0,4.986A3.023,3.023,0,0,0,2013.381,749.729Z" transform="translate(-1989.461 -734.405)" fill="#fff" fill-rule="evenodd"/>
      <g id="Group_5393" data-name="Group 5393" transform="translate(32.312 0)">
        <path id="Path_4987" data-name="Path 4987" d="M2585.612,567.54h7.987l-.164,2.757H2585.7v9.328h-3.584V566.989a4.511,4.511,0,0,1,1.252-3.354,4.8,4.8,0,0,1,3.527-1.241,6.575,6.575,0,0,1,1.528.172,3.713,3.713,0,0,1,1.206.494l-.942,2.6a2.452,2.452,0,0,0-1.447-.436q-1.631,0-1.632,1.792Z" transform="translate(-2582.12 -561.544)" fill="#fff" fill-rule="evenodd"/>
        <path id="Path_4988" data-name="Path 4988" d="M2924.88,757.4h3.584V769.48h-3.584Z" transform="translate(-2915.832 -751.398)" fill="#fff" fill-rule="evenodd"/>
        <path id="Path_4989" data-name="Path 4989" d="M2910.579,534.194a2.272,2.272,0,0,1-1.608-.574,1.946,1.946,0,0,1,0-2.849,2.272,2.272,0,0,1,1.608-.574,2.329,2.329,0,0,1,1.608.551,1.767,1.767,0,0,1,.62,1.378,1.95,1.95,0,0,1-.62,1.482A2.246,2.246,0,0,1,2910.579,534.194Z" transform="translate(-2899.738 -530.196)" fill="#fff" fill-rule="evenodd"/>
      </g>
    </g>
    <g id="Group_5395" data-name="Group 5395" transform="translate(450.389 491.299)">
      <path id="Path_4990" data-name="Path 4990" d="M1467.65,1430.43h.688a3.962,3.962,0,0,1,.8.052.889.889,0,0,1,.484.3.966.966,0,0,1,0,1.138.9.9,0,0,1-.5.3,4.465,4.465,0,0,1-.878.056H1468v1.605h-.345Zm.345.336v1.173l.584.007a1.524,1.524,0,0,0,.519-.064.532.532,0,0,0,.258-.209.578.578,0,0,0,.094-.323.571.571,0,0,0-.094-.318.517.517,0,0,0-.248-.205,1.485,1.485,0,0,0-.5-.061Z" transform="translate(-1467.65 -1430.343)" fill="#f2f2f4" fill-rule="evenodd"/>
      <path id="Path_4991" data-name="Path 4991" d="M1650.2,1430.43h.688a4.175,4.175,0,0,1,.779.047.889.889,0,0,1,.5.3.858.858,0,0,1,.193.569.918.918,0,0,1-.133.5.826.826,0,0,1-.379.323,1.742,1.742,0,0,1-.68.112l1.241,1.605h-.427l-1.239-1.605h-.2v1.605h-.345Zm.345.338v1.173l.594,0a1.474,1.474,0,0,0,.51-.066.531.531,0,0,0,.258-.21.586.586,0,0,0,.093-.323.558.558,0,0,0-.094-.315.523.523,0,0,0-.246-.2,1.5,1.5,0,0,0-.507-.061Z" transform="translate(-1645.381 -1430.343)" fill="#f2f2f4" fill-rule="evenodd"/>
      <path id="Path_4992" data-name="Path 4992" d="M1830.105,1427.15a1.789,1.789,0,0,1,1.312.523,1.815,1.815,0,0,1-1.284,3.1,1.766,1.766,0,0,1-1.3-.525,1.729,1.729,0,0,1-.528-1.272,1.84,1.84,0,0,1,.24-.922,1.777,1.777,0,0,1,1.555-.906Zm.016.338a1.42,1.42,0,0,0-.725.2,1.436,1.436,0,0,0-.535.537,1.5,1.5,0,0,0-.193.753,1.45,1.45,0,0,0,1.452,1.462,1.473,1.473,0,0,0,.743-.195,1.4,1.4,0,0,0,.533-.533,1.5,1.5,0,0,0,.191-.751,1.461,1.461,0,0,0-.191-.743,1.428,1.428,0,0,0-.539-.532A1.458,1.458,0,0,0,1830.121,1427.488Z" transform="translate(-1818.789 -1427.15)" fill="#f2f2f4" fill-rule="evenodd"/>
      <path id="Path_4993" data-name="Path 4993" d="M2053.26,1430.766v-.336h1.894v.336h-.77v3.116h-.352v-3.116Z" transform="translate(-2037.801 -1430.343)" fill="#f2f2f4" fill-rule="evenodd"/>
      <path id="Path_4994" data-name="Path 4994" d="M2213.866,1427.15a1.79,1.79,0,0,1,1.312.523,1.814,1.814,0,0,1-1.283,3.1,1.766,1.766,0,0,1-1.3-.525,1.729,1.729,0,0,1-.528-1.272,1.838,1.838,0,0,1,.241-.922,1.776,1.776,0,0,1,1.555-.906Zm.016.338a1.469,1.469,0,0,0-1.26.737,1.5,1.5,0,0,0-.192.753,1.45,1.45,0,0,0,1.452,1.462,1.473,1.473,0,0,0,.743-.195,1.4,1.4,0,0,0,.533-.533,1.5,1.5,0,0,0,.191-.751,1.461,1.461,0,0,0-.191-.743,1.43,1.43,0,0,0-.538-.532A1.46,1.46,0,0,0,2213.882,1427.488Z" transform="translate(-2192.419 -1427.15)" fill="#f2f2f4" fill-rule="evenodd"/>
      <path id="Path_4995" data-name="Path 4995" d="M2447.334,1427.877l-.272.209a1.488,1.488,0,0,0-.541-.444,1.583,1.583,0,0,0-.694-.151,1.53,1.53,0,0,0-.765.2,1.418,1.418,0,0,0-.546.533,1.477,1.477,0,0,0-.194.752,1.412,1.412,0,0,0,.433,1.054,1.5,1.5,0,0,0,1.092.422,1.535,1.535,0,0,0,1.213-.568l.272.207a1.738,1.738,0,0,1-.644.508,2.023,2.023,0,0,1-.863.179,1.793,1.793,0,0,1-1.429-.6,1.817,1.817,0,0,1-.439-1.23,1.709,1.709,0,0,1,.531-1.275,1.831,1.831,0,0,1,1.332-.518,1.952,1.952,0,0,1,.873.191A1.693,1.693,0,0,1,2447.334,1427.877Z" transform="translate(-2418.187 -1427.15)" fill="#f2f2f4" fill-rule="evenodd"/>
      <path id="Path_4996" data-name="Path 4996" d="M2668.135,1427.15a1.79,1.79,0,0,1,1.312.523,1.815,1.815,0,0,1-1.284,3.1,1.766,1.766,0,0,1-1.3-.525,1.728,1.728,0,0,1-.528-1.272,1.837,1.837,0,0,1,.24-.922,1.777,1.777,0,0,1,1.554-.906Zm.016.338a1.471,1.471,0,0,0-1.26.737,1.494,1.494,0,0,0-.192.753,1.45,1.45,0,0,0,1.452,1.462,1.473,1.473,0,0,0,.743-.195,1.4,1.4,0,0,0,.533-.533,1.5,1.5,0,0,0,.191-.751,1.459,1.459,0,0,0-.191-.743,1.429,1.429,0,0,0-.538-.532A1.46,1.46,0,0,0,2668.151,1427.488Z" transform="translate(-2634.697 -1427.15)" fill="#f2f2f4" fill-rule="evenodd"/>
      <path id="Path_4997" data-name="Path 4997" d="M2904.27,1430.43h.348v3.119h1.325v.333h-1.673Z" transform="translate(-2866.346 -1430.343)" fill="#f2f2f4" fill-rule="evenodd"/>
    </g>
  </g>
</svg>
