<svg xmlns="http://www.w3.org/2000/svg" width="54.435" height="19.195" viewBox="0 0 54.435 19.195">
  <path id="Path_4986" data-name="Path 4986" d="M1.714,0V-19.2H7.62a8.969,8.969,0,0,1,4.529,1.14,7.952,7.952,0,0,1,3.118,3.243,10,10,0,0,1,1.121,4.779v.883a10.031,10.031,0,0,1-1.1,4.759,7.884,7.884,0,0,1-3.1,3.23A9.037,9.037,0,0,1,7.66,0ZM5.669-15.992V-3.177H7.581a4.3,4.3,0,0,0,3.546-1.516,6.851,6.851,0,0,0,1.252-4.337v-1.015a6.96,6.96,0,0,0-1.213-4.436,4.28,4.28,0,0,0-3.546-1.51ZM29.821-3.955H22.887L21.568,0H17.363l7.146-19.2h3.665L35.358,0H31.153Zm-5.867-3.2h4.8l-2.413-7.185ZM48.7-7.844H41.106V0H37.151V-19.2h12.5v3.2H41.106v4.957H48.7ZM56.149,0H52.194V-19.2h3.955Z" transform="translate(-1.714 19.195)" fill="#eaeaea"/>
</svg>
