<svg xmlns="http://www.w3.org/2000/svg" xmlns:xlink="http://www.w3.org/1999/xlink" width="18.5" height="17.5" viewBox="0 0 18.5 17.5">
  <defs>
    <clipPath id="clip-path">
      <path id="Path_4443" data-name="Path 4443" d="M2153.75-984a1.75,1.75,0,0,1,1.744,1.607l.006.143v2.419a1.748,1.748,0,0,1,.993,1.438l.006.143v6a1.749,1.749,0,0,1-1,1.581v2.419a1.75,1.75,0,0,1-1.606,1.744l-.144.006h-14a1.75,1.75,0,0,1-1.744-1.607l-.006-.143v-14a1.75,1.75,0,0,1,1.606-1.744l.144-.006Zm0,1.5h-14a.25.25,0,0,0-.243.193l-.007.057v14a.25.25,0,0,0,.193.243l.057.007h14a.25.25,0,0,0,.243-.193l.007-.057v-2.25h-6.25a1.75,1.75,0,0,1-1.744-1.607l-.006-.143v-6a1.75,1.75,0,0,1,1.606-1.744l.144-.006H2154v-2.25a.25.25,0,0,0-.193-.243Zm1,4h-7a.25.25,0,0,0-.243.193l-.007.057v6a.25.25,0,0,0,.193.243l.057.007h7a.25.25,0,0,0,.243-.193l.007-.057v-6a.25.25,0,0,0-.193-.243Zm-4,1.75a1.5,1.5,0,0,1,1.5,1.5,1.5,1.5,0,0,1-1.5,1.5,1.5,1.5,0,0,1-1.5-1.5A1.5,1.5,0,0,1,2150.75-976.75Z" fill="#fff"/>
    </clipPath>
    <clipPath id="clip-path-2">
      <path id="Path_4442" data-name="Path 4442" d="M1416,0H2782V-1024H1416Z" fill="#fff"/>
    </clipPath>
  </defs>
  <g id="Group_4539" data-name="Group 4539" transform="translate(-2138 984)" clip-path="url(#clip-path)">
    <g id="Group_4538" data-name="Group 4538" clip-path="url(#clip-path-2)">
      <path id="Path_4441" data-name="Path 4441" d="M2133-989h28.5v27.5H2133Z" fill="#fff"/>
    </g>
  </g>
</svg>
